<svg width="4206" height="1000" viewBox="0 0 4206 1000" fill="none" xmlns="http://www.w3.org/2000/svg">
<rect x="101" y="101" width="4005" height="800" rx="400" fill="#2281E4"/>
<rect x="101" y="501" width="400" height="400" fill="#2281E4"/>
<rect x="409.552" y="572.519" width="318.622" height="159.311" fill="#84C1FF"/>
<rect x="273" y="731.83" width="318.622" height="159.311" transform="rotate(-90 273 731.83)" fill="#ADD6FF"/>
<path d="M273 351.001L500.587 197L568.863 244.035V435.967H273V351.001Z" fill="#D6EAFF"/>
<path d="M568.864 572.519V244.034L728.175 351.759V572.519H568.864Z" fill="#EAF4FF"/>
<path d="M937.015 669C931.615 669 927.265 667.5 923.965 664.5C920.965 661.2 919.465 656.85 919.465 651.45V440.4C919.465 435 920.965 430.8 923.965 427.8C927.265 424.5 931.615 422.85 937.015 422.85C942.115 422.85 946.165 424.5 949.165 427.8C952.465 430.8 954.115 435 954.115 440.4V651.45C954.115 656.85 952.465 661.2 949.165 664.5C946.165 667.5 942.115 669 937.015 669ZM936.565 376.05C929.965 376.05 924.265 373.65 919.465 368.85C914.665 364.05 912.265 358.2 912.265 351.3C912.265 343.8 914.665 337.95 919.465 333.75C924.565 329.25 930.415 327 937.015 327C943.315 327 948.865 329.25 953.665 333.75C958.765 337.95 961.315 343.8 961.315 351.3C961.315 358.2 958.915 364.05 954.115 368.85C949.315 373.65 943.465 376.05 936.565 376.05ZM1253.39 669C1248.29 669 1244.09 667.35 1240.79 664.05C1237.49 660.75 1235.84 656.7 1235.84 651.9V534.9C1235.84 516.3 1232.24 501 1225.04 489C1218.14 477 1208.54 468 1196.24 462C1184.24 456 1170.59 453 1155.29 453C1140.59 453 1127.24 455.85 1115.24 461.55C1103.54 467.25 1094.24 475.05 1087.34 484.95C1080.44 494.85 1076.99 506.1 1076.99 518.7H1052.24C1052.84 499.8 1057.94 483 1067.54 468.3C1077.14 453.3 1089.89 441.6 1105.79 433.2C1121.69 424.5 1139.39 420.15 1158.89 420.15C1180.19 420.15 1199.24 424.65 1216.04 433.65C1232.84 442.35 1246.04 455.25 1255.64 472.35C1265.54 489.45 1270.49 510.3 1270.49 534.9V651.9C1270.49 656.7 1268.84 660.75 1265.54 664.05C1262.24 667.35 1258.19 669 1253.39 669ZM1059.89 669C1054.49 669 1050.14 667.5 1046.84 664.5C1043.84 661.2 1042.34 657 1042.34 651.9V440.4C1042.34 435 1043.84 430.8 1046.84 427.8C1050.14 424.5 1054.49 422.85 1059.89 422.85C1064.99 422.85 1069.04 424.5 1072.04 427.8C1075.34 430.8 1076.99 435 1076.99 440.4V651.9C1076.99 657 1075.34 661.2 1072.04 664.5C1069.04 667.5 1064.99 669 1059.89 669ZM1443.18 669C1427.28 669 1413.03 665.25 1400.43 657.75C1388.13 650.25 1378.38 640.05 1371.18 627.15C1363.98 613.95 1360.38 598.95 1360.38 582.15V362.1C1360.38 357 1361.88 352.8 1364.88 349.5C1368.18 346.2 1372.38 344.55 1377.48 344.55C1382.58 344.55 1386.78 346.2 1390.08 349.5C1393.38 352.8 1395.03 357 1395.03 362.1V582.15C1395.03 597.45 1399.53 610.05 1408.53 619.95C1417.53 629.55 1429.08 634.35 1443.18 634.35H1455.33C1460.13 634.35 1464.03 636 1467.03 639.3C1470.03 642.6 1471.53 646.8 1471.53 651.9C1471.53 657 1469.73 661.2 1466.13 664.5C1462.53 667.5 1458.03 669 1452.63 669H1443.18ZM1331.13 462C1326.63 462 1322.88 460.65 1319.88 457.95C1316.88 454.95 1315.38 451.35 1315.38 447.15C1315.38 442.65 1316.88 439.05 1319.88 436.35C1322.88 433.35 1326.63 431.85 1331.13 431.85H1445.88C1450.38 431.85 1454.13 433.35 1457.13 436.35C1460.13 439.05 1461.63 442.65 1461.63 447.15C1461.63 451.35 1460.13 454.95 1457.13 457.95C1454.13 460.65 1450.38 462 1445.88 462H1331.13ZM1639.54 671.25C1615.24 671.25 1593.64 666 1574.74 655.5C1556.14 644.7 1541.44 629.85 1530.64 610.95C1520.14 592.05 1514.89 570.45 1514.89 546.15C1514.89 521.55 1519.84 499.95 1529.74 481.35C1539.94 462.45 1553.89 447.6 1571.59 436.8C1589.29 426 1609.69 420.6 1632.79 420.6C1655.59 420.6 1675.39 425.85 1692.19 436.35C1709.29 446.55 1722.49 460.8 1731.79 479.1C1741.09 497.4 1745.74 518.25 1745.74 541.65C1745.74 546.45 1744.24 550.35 1741.24 553.35C1738.24 556.05 1734.34 557.4 1729.54 557.4H1538.29V528.6H1733.14L1713.79 542.55C1714.09 525.15 1710.94 509.55 1704.34 495.75C1697.74 481.95 1688.29 471.15 1675.99 463.35C1663.99 455.55 1649.59 451.65 1632.79 451.65C1615.69 451.65 1600.69 455.7 1587.79 463.8C1574.89 471.9 1564.84 483.15 1557.64 497.55C1550.74 511.65 1547.29 527.85 1547.29 546.15C1547.29 564.45 1551.19 580.65 1558.99 594.75C1567.09 608.85 1578.04 619.95 1591.84 628.05C1605.64 636.15 1621.54 640.2 1639.54 640.2C1650.34 640.2 1661.14 638.4 1671.94 634.8C1683.04 630.9 1691.89 626.1 1698.49 620.4C1701.79 617.7 1705.54 616.35 1709.74 616.35C1713.94 616.05 1717.54 617.1 1720.54 619.5C1724.44 623.1 1726.39 627 1726.39 631.2C1726.69 635.4 1725.04 639 1721.44 642C1711.54 650.4 1698.94 657.45 1683.64 663.15C1668.34 668.55 1653.64 671.25 1639.54 671.25ZM1818.75 517.35C1819.65 498.75 1824.45 482.1 1833.15 467.4C1842.15 452.7 1853.7 441.15 1867.8 432.75C1882.2 424.35 1898.1 420.15 1915.5 420.15C1929.3 420.15 1939.95 422.1 1947.45 426C1954.95 429.9 1957.8 435.6 1956 443.1C1954.8 447.6 1952.7 450.6 1949.7 452.1C1947 453.6 1943.55 454.2 1939.35 453.9C1935.45 453.6 1930.95 453.3 1925.85 453C1909.05 451.5 1894.05 453.3 1880.85 458.4C1867.95 463.2 1857.6 470.7 1849.8 480.9C1842.3 491.1 1838.55 503.25 1838.55 517.35H1818.75ZM1821.45 669C1816.05 669 1811.85 667.5 1808.85 664.5C1805.85 661.5 1804.35 657.3 1804.35 651.9V439.95C1804.35 434.55 1805.85 430.35 1808.85 427.35C1811.85 424.35 1816.05 422.85 1821.45 422.85C1826.85 422.85 1831.05 424.35 1834.05 427.35C1837.05 430.35 1838.55 434.55 1838.55 439.95V651.9C1838.55 657.3 1837.05 661.5 1834.05 664.5C1831.05 667.5 1826.85 669 1821.45 669ZM2221.51 669C2216.41 669 2212.21 667.35 2208.91 664.05C2205.61 660.75 2203.96 656.7 2203.96 651.9V534.9C2203.96 516.3 2200.36 501 2193.16 489C2186.26 477 2176.66 468 2164.36 462C2152.36 456 2138.71 453 2123.41 453C2108.71 453 2095.36 455.85 2083.36 461.55C2071.66 467.25 2062.36 475.05 2055.46 484.95C2048.56 494.85 2045.11 506.1 2045.11 518.7H2020.36C2020.96 499.8 2026.06 483 2035.66 468.3C2045.26 453.3 2058.01 441.6 2073.91 433.2C2089.81 424.5 2107.51 420.15 2127.01 420.15C2148.31 420.15 2167.36 424.65 2184.16 433.65C2200.96 442.35 2214.16 455.25 2223.76 472.35C2233.66 489.45 2238.61 510.3 2238.61 534.9V651.9C2238.61 656.7 2236.96 660.75 2233.66 664.05C2230.36 667.35 2226.31 669 2221.51 669ZM2028.01 669C2022.61 669 2018.26 667.5 2014.96 664.5C2011.96 661.2 2010.46 657 2010.46 651.9V440.4C2010.46 435 2011.96 430.8 2014.96 427.8C2018.26 424.5 2022.61 422.85 2028.01 422.85C2033.11 422.85 2037.16 424.5 2040.16 427.8C2043.46 430.8 2045.11 435 2045.11 440.4V651.9C2045.11 657 2043.46 661.2 2040.16 664.5C2037.16 667.5 2033.11 669 2028.01 669ZM2323.1 676.2C2315.9 676.2 2309.75 673.65 2304.65 668.55C2299.55 663.45 2297 657.3 2297 650.1C2297 642.6 2299.55 636.3 2304.65 631.2C2310.05 626.1 2316.2 623.55 2323.1 623.55C2330.3 623.55 2336.45 626.25 2341.55 631.65C2346.65 636.75 2349.2 642.9 2349.2 650.1C2349.2 657 2346.65 663.15 2341.55 668.55C2336.75 673.65 2330.6 676.2 2323.1 676.2ZM2623.17 669C2618.07 669 2613.87 667.35 2610.57 664.05C2607.27 660.75 2605.62 656.7 2605.62 651.9V534.9C2605.62 516.3 2602.02 501 2594.82 489C2587.92 477 2578.32 468 2566.02 462C2554.02 456 2540.37 453 2525.07 453C2510.37 453 2497.02 455.85 2485.02 461.55C2473.32 467.25 2464.02 475.05 2457.12 484.95C2450.22 494.85 2446.77 506.1 2446.77 518.7H2422.02C2422.62 499.8 2427.72 483 2437.32 468.3C2446.92 453.3 2459.67 441.6 2475.57 433.2C2491.47 424.5 2509.17 420.15 2528.67 420.15C2549.97 420.15 2569.02 424.65 2585.82 433.65C2602.62 442.35 2615.82 455.25 2625.42 472.35C2635.32 489.45 2640.27 510.3 2640.27 534.9V651.9C2640.27 656.7 2638.62 660.75 2635.32 664.05C2632.02 667.35 2627.97 669 2623.17 669ZM2429.67 669C2424.27 669 2419.92 667.5 2416.62 664.5C2413.62 661.2 2412.12 657 2412.12 651.9V440.4C2412.12 435 2413.62 430.8 2416.62 427.8C2419.92 424.5 2424.27 422.85 2429.67 422.85C2434.77 422.85 2438.82 424.5 2441.82 427.8C2445.12 430.8 2446.77 435 2446.77 440.4V651.9C2446.77 657 2445.12 661.2 2441.82 664.5C2438.82 667.5 2434.77 669 2429.67 669ZM2429.67 568.65C2424.27 568.65 2419.92 567 2416.62 563.7C2413.62 560.4 2412.12 556.2 2412.12 551.1V335.1C2412.12 329.7 2413.62 325.5 2416.62 322.5C2419.92 319.2 2424.27 317.55 2429.67 317.55C2434.77 317.55 2438.82 319.2 2441.82 322.5C2445.12 325.5 2446.77 329.7 2446.77 335.1V551.1C2446.77 556.2 2445.12 560.4 2441.82 563.7C2438.82 567 2434.77 568.65 2429.67 568.65ZM2828.71 671.25C2804.71 671.25 2783.26 665.85 2764.36 655.05C2745.46 644.25 2730.61 629.4 2719.81 610.5C2709.01 591.6 2703.61 570.15 2703.61 546.15C2703.61 521.85 2709.01 500.25 2719.81 481.35C2730.61 462.45 2745.46 447.6 2764.36 436.8C2783.26 426 2804.71 420.6 2828.71 420.6C2852.71 420.6 2874.01 426 2892.61 436.8C2911.51 447.6 2926.36 462.45 2937.16 481.35C2947.96 500.25 2953.51 521.85 2953.81 546.15C2953.81 570.15 2948.26 591.6 2937.16 610.5C2926.36 629.4 2911.51 644.25 2892.61 655.05C2874.01 665.85 2852.71 671.25 2828.71 671.25ZM2828.71 639.75C2846.11 639.75 2861.71 635.7 2875.51 627.6C2889.31 619.5 2900.11 608.4 2907.91 594.3C2915.71 580.2 2919.61 564.15 2919.61 546.15C2919.61 528.15 2915.71 512.1 2907.91 498C2900.11 483.6 2889.31 472.35 2875.51 464.25C2861.71 456.15 2846.11 452.1 2828.71 452.1C2811.31 452.1 2795.71 456.15 2781.91 464.25C2768.11 472.35 2757.16 483.6 2749.06 498C2741.26 512.1 2737.36 528.15 2737.36 546.15C2737.36 564.15 2741.26 580.2 2749.06 594.3C2757.16 608.4 2768.11 619.5 2781.91 627.6C2795.71 635.7 2811.31 639.75 2828.71 639.75ZM3128.3 671.7C3107 671.7 3087.95 667.35 3071.15 658.65C3054.35 649.65 3041 636.6 3031.1 619.5C3021.5 602.4 3016.7 581.55 3016.7 556.95V439.95C3016.7 435.15 3018.35 431.1 3021.65 427.8C3024.95 424.5 3029 422.85 3033.8 422.85C3038.9 422.85 3043.1 424.5 3046.4 427.8C3049.7 431.1 3051.35 435.15 3051.35 439.95V556.95C3051.35 575.55 3054.8 590.85 3061.7 602.85C3068.9 614.85 3078.5 623.85 3090.5 629.85C3102.8 635.85 3116.6 638.85 3131.9 638.85C3146.6 638.85 3159.8 636 3171.5 630.3C3183.5 624.6 3192.95 616.8 3199.85 606.9C3206.75 597 3210.2 585.75 3210.2 573.15H3234.95C3234.05 592.05 3228.8 609 3219.2 624C3209.9 638.7 3197.3 650.4 3181.4 659.1C3165.5 667.5 3147.8 671.7 3128.3 671.7ZM3227.3 669C3222.2 669 3218 667.5 3214.7 664.5C3211.7 661.2 3210.2 656.85 3210.2 651.45V439.95C3210.2 434.85 3211.7 430.8 3214.7 427.8C3218 424.5 3222.2 422.85 3227.3 422.85C3232.4 422.85 3236.6 424.5 3239.9 427.8C3243.2 430.8 3244.85 434.85 3244.85 439.95V651.45C3244.85 656.85 3243.2 661.2 3239.9 664.5C3236.6 667.5 3232.4 669 3227.3 669ZM3411.69 671.25C3393.99 671.25 3376.44 668.25 3359.04 662.25C3341.64 656.25 3327.54 647.25 3316.74 635.25C3313.44 631.65 3312.09 627.6 3312.69 623.1C3313.29 618.6 3315.54 614.7 3319.44 611.4C3323.64 608.4 3327.99 607.2 3332.49 607.8C3336.99 608.4 3340.74 610.35 3343.74 613.65C3350.94 622.05 3360.39 628.5 3372.09 633C3384.09 637.5 3397.29 639.75 3411.69 639.75C3433.89 639.75 3449.94 636 3459.84 628.5C3469.74 620.7 3474.84 611.4 3475.14 600.6C3475.14 589.8 3470.04 580.95 3459.84 574.05C3449.64 566.85 3432.84 561.3 3409.44 557.4C3379.14 552.6 3356.94 544.2 3342.84 532.2C3328.74 520.2 3321.69 505.95 3321.69 489.45C3321.69 474.15 3325.74 461.4 3333.84 451.2C3341.94 441 3352.74 433.35 3366.24 428.25C3379.74 423.15 3394.59 420.6 3410.79 420.6C3430.89 420.6 3448.14 424.05 3462.54 430.95C3477.24 437.85 3489.09 447.15 3498.09 458.85C3501.09 462.75 3502.29 466.8 3501.69 471C3501.09 475.2 3498.69 478.65 3494.49 481.35C3490.89 483.45 3486.69 484.2 3481.89 483.6C3477.39 482.7 3473.49 480.45 3470.19 476.85C3462.69 468.15 3453.99 461.85 3444.09 457.95C3434.19 453.75 3422.79 451.65 3409.89 451.65C3393.39 451.65 3380.19 455.1 3370.29 462C3360.39 468.6 3355.44 477 3355.44 487.2C3355.44 494.1 3357.24 500.1 3360.84 505.2C3364.74 510.3 3371.19 514.8 3380.19 518.7C3389.49 522.6 3402.39 525.9 3418.89 528.6C3441.39 532.2 3459.09 537.6 3471.99 544.8C3485.19 551.7 3494.49 559.95 3499.89 569.55C3505.59 578.85 3508.44 589.05 3508.44 600.15C3508.44 614.25 3504.24 626.7 3495.84 637.5C3487.74 648 3476.34 656.25 3461.64 662.25C3447.24 668.25 3430.59 671.25 3411.69 671.25ZM3679.92 671.25C3655.62 671.25 3634.02 666 3615.12 655.5C3596.52 644.7 3581.82 629.85 3571.02 610.95C3560.52 592.05 3555.27 570.45 3555.27 546.15C3555.27 521.55 3560.22 499.95 3570.12 481.35C3580.32 462.45 3594.27 447.6 3611.97 436.8C3629.67 426 3650.07 420.6 3673.17 420.6C3695.97 420.6 3715.77 425.85 3732.57 436.35C3749.67 446.55 3762.87 460.8 3772.17 479.1C3781.47 497.4 3786.12 518.25 3786.12 541.65C3786.12 546.45 3784.62 550.35 3781.62 553.35C3778.62 556.05 3774.72 557.4 3769.92 557.4H3578.67V528.6H3773.52L3754.17 542.55C3754.47 525.15 3751.32 509.55 3744.72 495.75C3738.12 481.95 3728.67 471.15 3716.37 463.35C3704.37 455.55 3689.97 451.65 3673.17 451.65C3656.07 451.65 3641.07 455.7 3628.17 463.8C3615.27 471.9 3605.22 483.15 3598.02 497.55C3591.12 511.65 3587.67 527.85 3587.67 546.15C3587.67 564.45 3591.57 580.65 3599.37 594.75C3607.47 608.85 3618.42 619.95 3632.22 628.05C3646.02 636.15 3661.92 640.2 3679.92 640.2C3690.72 640.2 3701.52 638.4 3712.32 634.8C3723.42 630.9 3732.27 626.1 3738.87 620.4C3742.17 617.7 3745.92 616.35 3750.12 616.35C3754.32 616.05 3757.92 617.1 3760.92 619.5C3764.82 623.1 3766.77 627 3766.77 631.2C3767.07 635.4 3765.42 639 3761.82 642C3751.92 650.4 3739.32 657.45 3724.02 663.15C3708.72 668.55 3694.02 671.25 3679.92 671.25Z" fill="white"/>
</svg>
