<svg width="360" height="284" viewBox="0 0 360 284" fill="none" xmlns="http://www.w3.org/2000/svg">
<path opacity="0.18" d="M318.947 274.294C337.648 267.209 354.557 252.057 358.223 232.343C361.244 216.084 355.016 199.577 347.445 184.867C339.875 170.157 330.705 155.944 327.172 139.79C320.59 109.751 334.168 76.4265 321.27 48.5215C317.392 40.1438 311.332 32.9174 304.486 26.7625C274.548 -0.0531426 229.592 -6.05744 191.245 5.80061C152.897 17.6587 120.883 45.3422 97.3316 77.9142C87.6144 91.3398 79.1692 105.677 68.5774 118.403C54.4608 135.354 36.1394 150.232 30.0086 171.406C25.5475 186.709 28.2419 203.287 33.5422 218.342C41.6959 241.421 76.8282 282.468 93.5507 282.388C130.821 282.202 202.331 284.035 236.88 282.707C262.764 281.689 291.854 284.549 318.947 274.294Z" fill="#51A4FB"/>
<path d="M159.186 243.201C158.303 245.725 157.526 248.621 158.807 250.967C159.663 252.276 160.816 253.362 162.172 254.138L174.363 262.445C176.704 264.039 179.186 265.677 181.996 265.89C184.805 266.102 187.994 264.304 188.232 261.462C188.515 258.212 185.114 255.989 183.524 253.137C181.439 249.4 182.587 244.768 183.674 240.624C186.414 230.193 188.415 219.58 189.663 208.866C187.163 207.839 179.884 203.243 177.296 204.005C174.381 204.89 171.748 213.064 170.45 215.73C166.06 224.612 162.297 233.792 159.186 243.201Z" fill="#F1AF8C"/>
<path d="M182.57 173.106C179.407 182.113 176.05 191.146 170.98 199.24C170.796 199.474 170.699 199.766 170.706 200.064C170.786 200.344 170.961 200.588 171.201 200.755C176.298 205.227 181.801 209.894 188.506 210.859C188.943 210.96 189.401 210.92 189.814 210.744C190.201 210.469 190.486 210.074 190.626 209.619C194.902 199.692 196.412 188.817 196.271 178.066C196.178 172.695 195.754 167.336 194.999 162.019C194.822 160.726 194.725 154.987 193.603 154.314C191.898 153.305 190.026 156.829 189.284 157.936C186.209 162.55 184.39 167.864 182.57 173.106Z" fill="white"/>
<path d="M196.43 155.944C196.43 155.944 192.446 157.44 189.204 168.687C185.962 179.934 178.224 207.193 178.224 207.193C178.224 207.193 190.193 213.188 193.188 210.939C196.183 208.689 196.43 155.944 196.43 155.944Z" fill="url(#paint0_linear)"/>
<path d="M230.388 144.36C236.907 144.156 243.506 144.475 249.778 146.246C256.05 148.018 262.013 151.365 266.129 156.44C270.688 162.054 272.684 169.396 273.144 176.613C273.603 183.831 272.649 191.066 271.924 198.275C270.227 215.148 269.778 232.124 270.582 249.063C270.776 253.119 273.091 274.294 270.246 277.19C268.479 279.014 272.013 280.838 269.495 281.441C248.912 286.4 211.934 283.965 192.446 275.693C187.49 273.585 182.517 270.654 180.079 265.854C177.428 260.656 184.584 240.048 185.441 234.265C188.038 216.618 189.911 198.877 191.059 181.041C191.563 173.151 190.98 164.649 192.596 156.9C193.771 151.277 197.384 149.744 202.596 148.363C211.682 145.993 221.004 144.651 230.388 144.36Z" fill="white"/>
<path d="M247.322 236.683C246.642 240.27 245.75 244.016 243.303 246.725C241.367 248.665 238.999 250.116 236.395 250.959C224.115 255.599 210.114 254.873 198.347 260.7C197.517 261.065 196.753 261.564 196.086 262.179C193.815 264.428 194.451 268.378 196.253 271.035C200.255 276.906 208.038 278.554 215.061 279.643C231.898 282.3 249.089 284.469 265.917 281.751C266.833 281.684 267.709 281.348 268.435 280.785C269.016 280.109 269.387 279.278 269.504 278.394C273.32 261.409 270.317 243.723 270.246 226.313C270.246 216.27 271.129 206.219 270.449 196.203C270.107 189.97 268.814 183.826 266.615 177.986C265.052 174.019 260.476 165.26 257.728 173.39C253.364 186.311 252.11 200.241 250.538 213.711C249.681 221.389 248.762 229.076 247.322 236.683Z" fill="url(#paint1_linear)"/>
<path d="M252.587 267.82H109.814C105.808 267.82 102.561 271.075 102.561 275.091C102.561 279.106 105.808 282.362 109.814 282.362H252.587C256.593 282.362 259.84 279.106 259.84 275.091C259.84 271.075 256.593 267.82 252.587 267.82Z" fill="#51A4FB"/>
<path d="M252.587 267.82H109.814C105.808 267.82 102.561 271.075 102.561 275.091C102.561 279.106 105.808 282.362 109.814 282.362H252.587C256.593 282.362 259.84 279.106 259.84 275.091C259.84 271.075 256.593 267.82 252.587 267.82Z" fill="url(#paint2_linear)"/>
<path d="M214.637 158.122C211.713 157.653 210.07 154.704 211.377 147.601C211.518 146.813 211.704 146.052 211.916 145.29C211.916 145.148 211.995 145.007 212.031 144.865C212.349 143.767 212.711 142.669 213.064 141.579C214.048 138.965 214.568 136.199 214.601 133.405C214.522 131.368 214.363 129.252 215.114 127.374C215.835 125.781 216.966 124.409 218.391 123.398C221.545 120.963 230.759 116.384 232.525 122.433C233.312 125.019 232.737 128.03 232.702 130.678C232.525 134.472 233.22 138.256 234.734 141.739C236.66 145.618 221.819 159.273 214.637 158.122Z" fill="#F1AF8C"/>
<path d="M212.561 143.696C212.561 143.696 228.85 137.497 231.995 127.693L214.637 133.388C214.637 133.388 214.222 142.359 212.561 143.696Z" fill="url(#paint3_linear)"/>
<path d="M256.721 164.897C255.059 183.425 258.123 202.072 265.626 219.086C265.848 219.714 266.221 220.277 266.712 220.725C267.505 221.218 268.432 221.447 269.363 221.38C276.63 221.537 283.739 219.248 289.557 214.88C291.324 213.542 292.984 211.833 293.135 209.752C293.139 208.636 292.919 207.531 292.49 206.502C287.98 193.364 282.715 180.498 276.721 167.97C274.495 163.329 271.509 157.892 266.121 155.846C259.637 153.393 257.172 160.044 256.721 164.897Z" fill="white"/>
<path d="M225.158 175.489C229.99 170.379 233.532 164.206 237.031 158.104C239.16 154.385 241.342 150.497 241.642 146.211C241.718 145.724 241.641 145.226 241.421 144.785C241.208 144.478 240.931 144.221 240.608 144.032L233.974 139.525C233.859 143.607 230.935 147.114 227.596 149.461C224.063 151.976 213.948 154.73 216.112 159.946C216.651 161.266 224.593 176.082 225.158 175.489Z" fill="#51A4FB"/>
<path d="M225.158 175.489C229.99 170.379 233.532 164.206 237.031 158.104C239.16 154.385 241.342 150.497 241.642 146.211C241.718 145.724 241.641 145.226 241.421 144.785C241.208 144.478 240.931 144.221 240.608 144.032L233.974 139.525C233.859 143.607 230.935 147.114 227.596 149.461C224.063 151.976 213.948 154.73 216.112 159.946C216.651 161.266 224.593 176.082 225.158 175.489Z" fill="url(#paint4_linear)"/>
<path d="M262.905 271.15L301.598 263.738C303.885 263.295 306.271 262.852 308.082 261.347C310.564 259.345 311.438 255.838 311.076 252.659C310.714 249.48 309.309 246.531 307.914 243.644C302.419 232.237 291.271 211.762 291.2 212.958C284.433 214.393 278.833 214.463 273.02 218.192C272.019 218.733 271.174 219.523 270.564 220.485C268.241 224.913 274.592 231.378 276.748 234.743C277.574 235.819 278.126 237.081 278.356 238.419C278.402 239.364 278.226 240.308 277.843 241.173C275.75 246.327 268.294 249.329 263.709 251.977C257.715 255.61 250.994 257.872 244.027 258.601C238.621 259.062 233.1 258.362 227.817 259.575C224.577 260.349 221.541 261.812 218.915 263.866C216.288 265.92 214.134 268.516 212.596 271.478C215.741 273.479 219.831 272.319 223.453 271.407C230.164 269.738 237.101 269.179 243.992 269.751C248.462 270.132 260.785 275.321 262.905 271.15Z" fill="#F1AF8C"/>
<path d="M203.082 282.37H93.5419L64.6463 208.867C64.2547 207.886 64.109 206.824 64.222 205.774C64.335 204.724 64.7032 203.718 65.2944 202.844C65.8857 201.969 66.6818 201.254 67.613 200.76C68.5443 200.266 69.5822 200.009 70.6357 200.011H156.625C160.789 200.008 164.858 201.263 168.3 203.612C171.743 205.961 174.401 209.295 175.927 213.179L203.082 282.37Z" fill="#51A4FB"/>
<path d="M203.082 282.37H93.5419L64.6463 208.867C64.2547 207.886 64.109 206.824 64.222 205.774C64.335 204.724 64.7032 203.718 65.2944 202.844C65.8857 201.969 66.6818 201.254 67.613 200.76C68.5443 200.266 69.5822 200.009 70.6357 200.011H156.625C160.789 200.008 164.858 201.263 168.3 203.612C171.743 205.961 174.401 209.295 175.927 213.179L203.082 282.37Z" fill="url(#paint5_linear)"/>
<path d="M197.517 282.45H93.4359L65.9802 212.657C65.6148 211.727 65.4814 210.721 65.5919 209.728C65.7023 208.734 66.0531 207.783 66.6138 206.956C67.1746 206.13 67.9282 205.453 68.8093 204.985C69.6903 204.517 70.6721 204.271 71.6692 204.27H153.347C157.303 204.273 161.167 205.468 164.437 207.699C167.707 209.931 170.233 213.096 171.686 216.784L197.517 282.45Z" fill="url(#paint6_linear)"/>
<path d="M211.103 39.887C213.753 38.3284 216.403 36.7431 219.398 36.1587C222.393 35.5742 226.465 35.9284 228.488 38.1955C225.865 38.3805 223.309 39.1115 220.984 40.342C218.658 41.5725 216.614 43.2755 214.981 45.3422C214.83 45.6108 214.589 45.8176 214.301 45.9267C214.055 45.9527 213.806 45.9066 213.585 45.7939C212.366 45.3334 203.232 47.4234 202.702 46.3164C202.729 46.3164 209.981 40.5689 211.103 39.887Z" fill="#51A4FB"/>
<path d="M211.103 39.887C213.753 38.3284 216.403 36.7431 219.398 36.1587C222.393 35.5742 226.465 35.9284 228.488 38.1955C225.865 38.3805 223.309 39.1115 220.984 40.342C218.658 41.5725 216.614 43.2755 214.981 45.3422C214.83 45.6108 214.589 45.8176 214.301 45.9267C214.055 45.9527 213.806 45.9066 213.585 45.7939C212.366 45.3334 203.232 47.4234 202.702 46.3164C202.729 46.3164 209.981 40.5689 211.103 39.887Z" fill="url(#paint7_linear)"/>
<path d="M191.359 107.422C197.282 107.422 202.084 101.491 202.084 94.1737C202.084 86.8568 197.282 80.9253 191.359 80.9253C185.437 80.9253 180.635 86.8568 180.635 94.1737C180.635 101.491 185.437 107.422 191.359 107.422Z" fill="#51A4FB"/>
<path d="M193.559 107.918C199.038 107.918 203.48 102.431 203.48 95.6615C203.48 88.8924 199.038 83.4049 193.559 83.4049C188.08 83.4049 183.639 88.8924 183.639 95.6615C183.639 102.431 188.08 107.918 193.559 107.918Z" fill="#51A4FB"/>
<path d="M193.559 107.918C199.038 107.918 203.48 102.431 203.48 95.6615C203.48 88.8924 199.038 83.4049 193.559 83.4049C188.08 83.4049 183.639 88.8924 183.639 95.6615C183.639 102.431 188.08 107.918 193.559 107.918Z" fill="url(#paint8_linear)"/>
<path d="M190.07 70.9712L192.552 116.499C192.552 116.499 193.656 133.68 210.644 133.848C231.05 134.052 237.26 122.158 240.361 113.108C243.462 104.057 246.262 77.4715 240.361 70.1211C234.46 62.7707 201.253 44.678 190.07 70.9712Z" fill="#F1AF8C"/>
<path d="M202.976 43.633C194.973 43.4914 185.829 47.2374 182.181 54.8092C181.306 56.5514 180.829 58.4676 180.786 60.4179C180.743 62.3683 181.135 64.3036 181.934 66.0828C182.227 66.606 182.458 67.1618 182.623 67.7388C182.702 68.3769 182.702 69.0224 182.623 69.6605C182.553 71.1989 182.863 72.7307 183.524 74.1208C184.184 75.5108 185.177 76.7164 186.413 77.6309C187.817 78.6493 189.522 79.2869 190.644 80.6064L190.211 72.1313C190.111 71.6734 190.196 71.1944 190.448 70.7993C190.7 70.4042 191.097 70.1253 191.554 70.0236L196.934 67.5086C196.934 67.5086 198.594 68.7218 198.798 68.8192C199.69 69.2004 200.654 69.3846 201.624 69.3594C203.733 69.4093 205.842 69.2908 207.932 69.0052C212.446 68.3587 216.766 66.7027 220.979 65.0555C220.843 66.3648 220.278 67.5919 219.372 68.5447L233.091 71.2015C235.1 73.9712 236.72 77.0047 237.905 80.2168C238.854 82.7273 239.477 85.3494 239.76 88.0188C240.128 91.6481 239.788 95.3144 238.762 98.8142C239.695 98.101 240.512 97.2465 241.183 96.2814C242.423 97.1449 243.796 97.8 245.246 98.2208C245.548 98.3333 245.875 98.3608 246.191 98.3005C246.863 98.1146 247.004 97.3175 247.075 96.6799C247.622 90.9678 251.863 86.1414 253.806 80.6861C256.165 74.0796 254.972 66.6495 251.368 60.5301C250.3 58.5911 248.848 56.8914 247.101 55.5354C240.785 50.8949 231.81 53.0203 224.601 50.5938C221.174 49.4425 218.418 47.2551 215.14 45.8116C211.501 44.2618 206.942 43.7039 202.976 43.633Z" fill="#3F3D56"/>
<path d="M202.976 43.633C194.973 43.4914 185.829 47.2374 182.181 54.8092C181.306 56.5514 180.829 58.4676 180.786 60.4179C180.743 62.3683 181.135 64.3036 181.934 66.0828C182.227 66.606 182.458 67.1618 182.623 67.7388C182.702 68.3769 182.702 69.0224 182.623 69.6605C182.553 71.1989 182.863 72.7307 183.524 74.1208C184.184 75.5108 185.177 76.7164 186.413 77.6309C187.817 78.6493 189.522 79.2869 190.644 80.6064L190.211 72.1313C190.111 71.6734 190.196 71.1944 190.448 70.7993C190.7 70.4042 191.097 70.1253 191.554 70.0236L196.934 67.5086C196.934 67.5086 198.594 68.7218 198.798 68.8192C199.69 69.2004 200.654 69.3846 201.624 69.3594C203.733 69.4093 205.842 69.2908 207.932 69.0052C212.446 68.3587 216.766 66.7027 220.979 65.0555C220.843 66.3648 220.278 67.5919 219.372 68.5447L233.091 71.2015C235.1 73.9712 236.72 77.0047 237.905 80.2168C238.854 82.7273 239.477 85.3494 239.76 88.0188C240.128 91.6481 239.788 95.3144 238.762 98.8142C239.695 98.101 240.512 97.2465 241.183 96.2814C242.423 97.1449 243.796 97.8 245.246 98.2208C245.548 98.3333 245.875 98.3608 246.191 98.3005C246.863 98.1146 247.004 97.3175 247.075 96.6799C247.622 90.9678 251.863 86.1414 253.806 80.6861C256.165 74.0796 254.972 66.6495 251.368 60.5301C250.3 58.5911 248.848 56.8914 247.101 55.5354C240.785 50.8949 231.81 53.0203 224.601 50.5938C221.174 49.4425 218.418 47.2551 215.14 45.8116C211.501 44.2618 206.942 43.7039 202.976 43.633Z" fill="url(#paint9_linear)"/>
<path d="M250.432 108.919C256.291 108.919 261.041 103.047 261.041 95.8032C261.041 88.5596 256.291 82.6876 250.432 82.6876C244.572 82.6876 239.822 88.5596 239.822 95.8032C239.822 103.047 244.572 108.919 250.432 108.919Z" fill="#51A4FB"/>
<path d="M250.432 108.919C256.291 108.919 261.041 103.047 261.041 95.8032C261.041 88.5596 256.291 82.6876 250.432 82.6876C244.572 82.6876 239.822 88.5596 239.822 95.8032C239.822 103.047 244.572 108.919 250.432 108.919Z" fill="url(#paint10_linear)"/>
<path d="M254.495 108.919C260.355 108.919 265.105 103.047 265.105 95.8032C265.105 88.5596 260.355 82.6876 254.495 82.6876C248.636 82.6876 243.886 88.5596 243.886 95.8032C243.886 103.047 248.636 108.919 254.495 108.919Z" fill="#51A4FB"/>
<path d="M254.575 83.7326L249.274 84.2994L248.011 84.4322L242.711 58.2807C239.955 47.937 233.214 39.9844 224.76 36.9026C223.451 36.4449 222.059 36.2787 220.679 36.4155L217.066 36.7432L218.833 36.2738L222.366 35.3351C223.471 35.0297 224.614 34.8894 225.759 34.9188C235.193 35.2642 244.142 42.8892 247.384 53.8173L254.575 83.7326Z" fill="#51A4FB"/>
<path d="M254.575 83.7326L249.274 84.2994L248.011 84.4322L242.711 58.2807C239.955 47.937 233.214 39.9844 224.76 36.9026C223.451 36.4449 222.059 36.2787 220.679 36.4155L217.066 36.7432L218.833 36.2738L222.366 35.3351C223.471 35.0297 224.614 34.8894 225.759 34.9188C235.193 35.2642 244.142 42.8892 247.384 53.8173L254.575 83.7326Z" fill="url(#paint11_linear)"/>
<path d="M254.575 83.7326L249.274 84.2994L243.974 58.0859C241.174 47.6359 234.372 39.6213 225.838 36.5129C224.518 36.0385 223.108 35.869 221.713 36.017L218.833 36.2738L222.366 35.3351C223.471 35.0297 224.614 34.8894 225.759 34.9188C235.193 35.2642 244.142 42.8892 247.384 53.8173L254.575 83.7326Z" fill="#51A4FB"/>
<path opacity="0.45" d="M143.347 4.56964H13.8162C6.18572 4.56964 0 10.7708 0 18.4203V170.901C0 178.551 6.18572 184.752 13.8162 184.752H143.347C150.978 184.752 157.164 178.551 157.164 170.901V18.4203C157.164 10.7708 150.978 4.56964 143.347 4.56964Z" fill="#51A4FB"/>
<path d="M47.3937 167.518C60.3811 167.518 70.9095 156.964 70.9095 143.944C70.9095 130.924 60.3811 120.369 47.3937 120.369C34.4063 120.369 23.8779 130.924 23.8779 143.944C23.8779 156.964 34.4063 167.518 47.3937 167.518Z" fill="url(#paint12_linear)"/>
<path d="M114.452 21.6527H14.0017V27.3205H114.452V21.6527Z" fill="#51A4FB"/>
<path opacity="0.51" d="M117.482 96.184H17.0317V101.852H117.482V96.184Z" fill="#51A4FB"/>
<path d="M88.436 86.4868H17.0317V92.1545H88.436V86.4868Z" fill="#51A4FB"/>
<path d="M146.006 86.4868H98.2062V92.1545H146.006V86.4868Z" fill="#51A4FB"/>
<path d="M145.847 50.6115H72.3495V55.6505H145.847V50.6115Z" fill="#51A4FB"/>
<path opacity="0.51" d="M135.582 59.5471H56.952V64.5861H135.582V59.5471Z" fill="#51A4FB"/>
<path d="M66.74 50.6115H18.401V55.6505H66.74V50.6115Z" fill="#51A4FB"/>
<path d="M145.847 68.2259H39.6023V73.2649H145.847V68.2259Z" fill="#51A4FB"/>
<path opacity="0.51" d="M34.0016 68.2259H18.401V73.2649H34.0016V68.2259Z" fill="#51A4FB"/>
<path opacity="0.51" d="M145.839 77.1703H75.7152V82.2094H145.839V77.1703Z" fill="#51A4FB"/>
<path d="M66.74 77.1703H18.401V82.2094H66.74V77.1703Z" fill="#51A4FB"/>
<path d="M49.4874 59.3346H18.401V64.3736H49.4874V59.3346Z" fill="#51A4FB"/>
<path d="M52.6058 128.446C51.2277 130.138 50.998 132.502 51.2542 134.645C51.3339 135.034 51.3339 135.434 51.2542 135.823C51.137 136.15 50.9569 136.451 50.7242 136.709C46.9809 141.373 42.7881 145.657 38.2066 149.497C38.0777 149.621 37.9242 149.718 37.756 149.78C37.4561 149.842 37.144 149.798 36.8727 149.656C35.5476 149.133 34.1253 148.567 32.7384 148.903C32.1099 149.092 31.5348 149.426 31.0604 149.881C30.5859 150.335 30.2255 150.895 30.0087 151.516C29.5802 152.767 29.5098 154.114 29.8055 155.403C31.3132 154.146 32.8827 152.965 34.514 151.861L36.8373 154.172C36.9579 154.265 37.0568 154.382 37.1271 154.517C37.1973 154.651 37.2371 154.8 37.2437 154.952C37.1984 155.134 37.1036 155.299 36.9698 155.43L33.5423 159.486C34.6696 159.938 35.8993 160.072 37.0971 159.872C38.295 159.672 39.4151 159.147 40.3355 158.352C42.1023 156.67 42.3673 153.526 40.6359 151.834L53.7895 137.054C54.6763 137.711 55.7538 138.059 56.8565 138.043C57.9593 138.027 59.0264 137.648 59.8937 136.965C60.736 136.252 61.3872 135.338 61.7883 134.308C62.1894 133.278 62.3276 132.164 62.1905 131.067C60.5533 132.051 59.0355 133.222 57.6676 134.557L55.0174 131.245C55.9538 130.359 59.5845 127.915 57.2259 126.958C55.6711 126.329 53.6129 127.215 52.6058 128.446Z" fill="#51A4FB"/>
<path d="M128.745 152.339L130.008 148.31C130.008 148.31 125.017 144.36 124.867 144.608L124.664 141.694L129.231 136.824L127.128 133.166C127.128 133.166 120.945 134.176 120.945 134.459C119.751 133.335 118.466 132.313 117.102 131.404L116.907 124.762L112.844 123.655C112.844 123.655 109.125 128.827 109.372 128.969C109.372 128.969 106.51 129.571 105.141 130.005L100.512 126.055L96.9783 128.34C96.9783 128.34 98.0295 133.273 98.4447 134.309C97.4553 135.398 96.2185 136.629 96.2185 136.629L89.6285 137.692L89.0631 141.872C89.0631 141.872 93.7009 144.387 94.602 144.643C94.6208 145.997 94.8289 147.342 95.2203 148.637L91.6249 154.181L94.3369 157.405C94.3369 157.405 97.9323 156.138 99.4959 155.448C100.954 156.776 103.029 158.352 103.029 158.352L104.69 164.835L108.895 165.012C108.895 165.012 110.918 160.292 111.13 159.256C112.483 159.105 113.847 159.087 115.203 159.203L121.112 162.311L124.072 159.3C123.218 157.386 122.266 155.518 121.218 153.703C121.594 153.246 121.933 152.76 122.234 152.251L128.745 152.339ZM109.134 152.49C107.48 152.492 105.864 152.002 104.488 151.082C103.113 150.163 102.041 148.855 101.407 147.324C100.773 145.794 100.606 144.109 100.927 142.483C101.249 140.857 102.044 139.364 103.213 138.191C104.381 137.019 105.87 136.22 107.491 135.896C109.113 135.572 110.793 135.737 112.321 136.371C113.848 137.005 115.154 138.079 116.073 139.457C116.991 140.835 117.482 142.455 117.482 144.112C117.479 146.332 116.599 148.46 115.035 150.03C113.47 151.601 111.348 152.485 109.134 152.49Z" fill="url(#paint13_linear)"/>
<path d="M184.363 68.6775C185.927 65.578 189.319 63.736 192.738 63.178C196.156 62.6201 199.655 63.1338 203.073 63.6562C199.761 66.313 190.511 70.2716 190.335 70.9801C190.21 72.2339 190.195 73.4963 190.291 74.7527C190.414 76.577 190.476 78.4899 190.467 80.3142C189.614 79.4763 188.658 78.7503 187.623 78.1534C186.733 77.8093 185.921 77.2881 185.238 76.6213C184.344 75.5224 183.786 74.188 183.631 72.7788C183.476 71.3696 183.73 69.9454 184.363 68.6775Z" fill="url(#paint14_linear)"/>
<path d="M229.354 127.596C225.363 127.515 221.405 126.853 217.605 125.63C217.155 125.495 216.777 125.186 216.554 124.772C216.331 124.357 216.282 123.871 216.417 123.42C216.551 122.969 216.859 122.591 217.273 122.367C217.686 122.144 218.171 122.094 218.621 122.229C227.72 124.975 234.566 124.611 238.939 121.149C244.893 116.464 244.504 107.537 244.504 107.449C244.481 106.979 244.644 106.519 244.959 106.17C245.274 105.822 245.714 105.612 246.182 105.589C246.651 105.565 247.11 105.73 247.458 106.045C247.806 106.361 248.014 106.802 248.038 107.272C248.038 107.706 248.506 118.138 241.121 123.947C238.046 126.374 234.124 127.59 229.354 127.596Z" fill="#51A4FB"/>
<path d="M229.354 127.596C225.363 127.515 221.405 126.853 217.605 125.63C217.155 125.495 216.777 125.186 216.554 124.772C216.331 124.357 216.282 123.871 216.417 123.42C216.551 122.969 216.859 122.591 217.273 122.367C217.686 122.144 218.171 122.094 218.621 122.229C227.72 124.975 234.566 124.611 238.939 121.149C244.893 116.464 244.504 107.537 244.504 107.449C244.481 106.979 244.644 106.519 244.959 106.17C245.274 105.822 245.714 105.612 246.182 105.589C246.651 105.565 247.11 105.73 247.458 106.045C247.806 106.361 248.014 106.802 248.038 107.272C248.038 107.706 248.506 118.138 241.121 123.947C238.046 126.374 234.124 127.59 229.354 127.596Z" fill="url(#paint15_linear)"/>
<path d="M218.524 119.236C219.537 119.747 220.331 120.609 220.759 121.662C221.147 123.168 219.981 124.611 218.78 125.594C217.747 126.517 216.477 127.131 215.114 127.366C213.117 127.605 211.209 126.524 209.548 125.382C208.622 124.815 207.831 124.05 207.234 123.141C205.697 120.431 207.684 116.942 210.29 115.791C213.179 114.542 216.253 117.739 218.524 119.236Z" fill="#51A4FB"/>
<path d="M218.524 119.236C219.537 119.747 220.331 120.609 220.759 121.662C221.147 123.168 219.981 124.611 218.78 125.594C217.747 126.517 216.477 127.131 215.114 127.366C213.117 127.605 211.209 126.524 209.548 125.382C208.622 124.815 207.831 124.05 207.234 123.141C205.697 120.431 207.684 116.942 210.29 115.791C213.179 114.542 216.253 117.739 218.524 119.236Z" fill="url(#paint16_linear)"/>
<defs>
<linearGradient id="paint0_linear" x1="235.608" y1="181.856" x2="175.096" y2="184.508" gradientUnits="userSpaceOnUse">
<stop offset="0.01"/>
<stop offset="1" stop-opacity="0"/>
</linearGradient>
<linearGradient id="paint1_linear" x1="34118.4" y1="50287.6" x2="11411.3" y2="36023.6" gradientUnits="userSpaceOnUse">
<stop offset="0.01"/>
<stop offset="1" stop-opacity="0"/>
</linearGradient>
<linearGradient id="paint2_linear" x1="32303.7" y1="4691.6" x2="32306" y2="5107.62" gradientUnits="userSpaceOnUse">
<stop offset="0.01"/>
<stop offset="1" stop-opacity="0"/>
</linearGradient>
<linearGradient id="paint3_linear" x1="5250.57" y1="2602.82" x2="5173.22" y2="3338.42" gradientUnits="userSpaceOnUse">
<stop offset="0.01"/>
<stop offset="1" stop-opacity="0"/>
</linearGradient>
<linearGradient id="paint4_linear" x1="220.6" y1="148.115" x2="239.345" y2="165.816" gradientUnits="userSpaceOnUse">
<stop offset="0.02" stop-color="white" stop-opacity="0"/>
<stop offset="0.58" stop-color="white" stop-opacity="0.39"/>
<stop offset="1" stop-color="white"/>
</linearGradient>
<linearGradient id="paint5_linear" x1="34171.8" y1="12143" x2="28282.6" y2="29690.5" gradientUnits="userSpaceOnUse">
<stop offset="0.01"/>
<stop offset="1" stop-opacity="0"/>
</linearGradient>
<linearGradient id="paint6_linear" x1="156.58" y1="316.82" x2="101.48" y2="163.913" gradientUnits="userSpaceOnUse">
<stop offset="0.01"/>
<stop offset="0.09" stop-opacity="0.82"/>
<stop offset="1" stop-opacity="0"/>
</linearGradient>
<linearGradient id="paint7_linear" x1="6571.61" y1="737.517" x2="6580.93" y2="971.566" gradientUnits="userSpaceOnUse">
<stop offset="0.01"/>
<stop offset="1" stop-opacity="0"/>
</linearGradient>
<linearGradient id="paint8_linear" x1="4639.9" y1="2204.53" x2="4333.29" y2="3176.79" gradientUnits="userSpaceOnUse">
<stop offset="0.01"/>
<stop offset="1" stop-opacity="0"/>
</linearGradient>
<linearGradient id="paint9_linear" x1="20334.2" y1="5276.27" x2="19379.3" y2="6304.51" gradientUnits="userSpaceOnUse">
<stop offset="0.01"/>
<stop offset="1" stop-opacity="0"/>
</linearGradient>
<linearGradient id="paint10_linear" x1="6299.75" y1="2909.36" x2="5991.15" y2="2959.29" gradientUnits="userSpaceOnUse">
<stop offset="0.01"/>
<stop offset="1" stop-opacity="0"/>
</linearGradient>
<linearGradient id="paint11_linear" x1="11154.6" y1="4419.66" x2="9848.48" y2="4850.03" gradientUnits="userSpaceOnUse">
<stop offset="0.01"/>
<stop offset="1" stop-opacity="0"/>
</linearGradient>
<linearGradient id="paint12_linear" x1="51.6075" y1="59.5028" x2="46.3074" y2="165.197" gradientUnits="userSpaceOnUse">
<stop offset="0.02" stop-color="white" stop-opacity="0"/>
<stop offset="0.58" stop-color="white" stop-opacity="0.39"/>
<stop offset="0.68" stop-color="white" stop-opacity="0.68"/>
<stop offset="1" stop-color="white"/>
</linearGradient>
<linearGradient id="paint13_linear" x1="6350.37" y1="5609.26" x2="5362.9" y2="7948.82" gradientUnits="userSpaceOnUse">
<stop offset="0.02" stop-color="white" stop-opacity="0"/>
<stop offset="0.58" stop-color="white" stop-opacity="0.39"/>
<stop offset="0.68" stop-color="white" stop-opacity="0.68"/>
<stop offset="1" stop-color="white"/>
</linearGradient>
<linearGradient id="paint14_linear" x1="4502.97" y1="2207.01" x2="4535.08" y2="1692.98" gradientUnits="userSpaceOnUse">
<stop offset="0.01"/>
<stop offset="1" stop-opacity="0"/>
</linearGradient>
<linearGradient id="paint15_linear" x1="8523.02" y1="3407.84" x2="8697.72" y2="3925.05" gradientUnits="userSpaceOnUse">
<stop offset="0.02" stop-color="white" stop-opacity="0"/>
<stop offset="0.58" stop-color="white" stop-opacity="0.39"/>
<stop offset="0.68" stop-color="white" stop-opacity="0.68"/>
<stop offset="1" stop-color="white"/>
</linearGradient>
<linearGradient id="paint16_linear" x1="3756.21" y1="1975.43" x2="3624.37" y2="2291.34" gradientUnits="userSpaceOnUse">
<stop offset="0.01"/>
<stop offset="1" stop-opacity="0"/>
</linearGradient>
</defs>
</svg>
