<svg width="255" height="294" viewBox="0 0 255 294" fill="none" xmlns="http://www.w3.org/2000/svg">
<path fill-rule="evenodd" clip-rule="evenodd" d="M0.5 127.273V125.172C0.5 56.0418 56.8866 0 126.443 0H128.557C198.113 0 254.5 56.0418 254.5 125.172V127.274C254.5 196.405 198.113 252.447 128.557 252.447H126.443C56.8866 252.448 0.5 196.405 0.5 127.274" fill="#E4EBF7"/>
<path fill-rule="evenodd" clip-rule="evenodd" d="M40.6068 130.79C40.5051 131.881 40.1872 132.941 39.6714 133.909C39.1555 134.877 38.452 135.734 37.6012 136.43C36.7505 137.127 35.7695 137.649 34.7147 137.967C33.6599 138.284 32.5523 138.391 31.4557 138.282C30.3591 138.172 29.2953 137.847 28.3255 137.327C27.3558 136.806 26.4993 136.1 25.8055 135.249C25.1118 134.398 24.5944 133.418 24.2833 132.367C23.9722 131.317 23.8736 130.215 23.993 129.126C24.2317 126.95 25.326 124.955 27.0375 123.577C28.7489 122.199 30.939 121.549 33.1305 121.769C35.322 121.988 37.3374 123.06 38.7377 124.75C40.1381 126.439 40.8098 128.611 40.6068 130.79Z" fill="white"/>
<path d="M49.3009 146.501L36.541 157.317M37.8021 134.257L48.3768 140.216L37.8021 134.257Z" stroke="white" stroke-width="2"/>
<path fill-rule="evenodd" clip-rule="evenodd" d="M40.7279 159.379C40.5759 160.878 39.8308 162.257 38.6566 163.21C37.4823 164.163 35.9751 164.614 34.4664 164.463C32.9578 164.312 31.5713 163.572 30.612 162.405C29.6527 161.237 29.1991 159.739 29.3511 158.24C29.4263 157.498 29.648 156.777 30.0034 156.12C30.3588 155.463 30.8409 154.881 31.4224 154.409C32.0038 153.937 32.6731 153.583 33.392 153.368C34.111 153.153 34.8655 153.081 35.6125 153.156C36.3595 153.231 37.0844 153.451 37.7457 153.804C38.4071 154.157 38.992 154.637 39.467 155.215C39.942 155.792 40.2978 156.458 40.5141 157.172C40.7305 157.887 40.8031 158.637 40.7279 159.379ZM58.5976 143.231C58.5279 143.984 58.3089 144.715 57.9533 145.383C57.5977 146.051 57.1125 146.642 56.5256 147.123C55.9388 147.604 55.262 147.964 54.5343 148.183C53.8066 148.403 53.0423 148.477 52.2857 148.401C51.5291 148.325 50.7951 148.101 50.1261 147.742C49.4571 147.383 48.8663 146.895 48.3878 146.308C47.9093 145.72 47.5526 145.045 47.3382 144.319C47.1239 143.594 47.0562 142.834 47.1391 142.083C47.3046 140.583 48.0596 139.208 49.2398 138.258C50.4201 137.309 51.93 136.861 53.4409 137.012C54.9518 137.163 56.3414 137.902 57.3072 139.067C58.273 140.231 58.7368 141.728 58.5976 143.231ZM100.394 26.5471L130.478 26.5331C131.086 26.5329 131.688 26.4137 132.249 26.1824C132.811 25.951 133.321 25.612 133.75 25.1848C134.18 24.7575 134.521 24.2503 134.753 23.6922C134.985 23.134 135.105 22.5358 135.105 21.9318C135.104 21.3277 134.985 20.7296 134.752 20.1716C134.519 19.6136 134.178 19.1067 133.748 18.6797C133.318 18.2527 132.808 17.914 132.246 17.6831C131.685 17.4521 131.083 17.3333 130.475 17.3335L100.391 17.3465C99.7834 17.3467 99.1815 17.4659 98.62 17.6973C98.0585 17.9287 97.5484 18.2677 97.1187 18.695C96.6891 19.1223 96.3483 19.6295 96.1159 20.1878C95.8834 20.746 95.7639 21.3442 95.7641 21.9483C95.7643 22.5524 95.8842 23.1506 96.117 23.7087C96.3498 24.2667 96.6909 24.7737 97.1209 25.2008C97.5508 25.6278 98.0612 25.9665 98.6228 26.1975C99.1845 26.4285 99.7864 26.5473 100.394 26.5471ZM111.901 44.9322L141.985 44.9192C143.201 44.9009 144.36 44.4079 145.213 43.5468C146.066 42.6858 146.544 41.5258 146.543 40.3174C146.543 39.1091 146.064 37.9495 145.21 37.0892C144.357 36.2289 143.197 35.7369 141.981 35.7196L111.897 35.7327C111.289 35.7329 110.688 35.8522 110.126 36.0836C109.565 36.315 109.055 36.654 108.625 37.0813C108.196 37.5086 107.855 38.0159 107.623 38.574C107.39 39.1322 107.271 39.7304 107.271 40.3345C107.271 40.9385 107.391 41.5366 107.624 42.0946C107.857 42.6525 108.198 43.1595 108.628 43.5864C109.058 44.0134 109.568 44.352 110.13 44.5829C110.692 44.8138 111.293 44.9325 111.901 44.9322Z" fill="white"/>
<path fill-rule="evenodd" clip-rule="evenodd" d="M114.296 26.5329V26.5309L130.22 26.5249C129.607 26.5161 128.997 26.6286 128.428 26.8559C127.859 27.0832 127.34 27.4208 126.904 27.8489C126.467 28.2771 126.12 28.7873 125.883 29.35C125.646 29.9126 125.524 30.5164 125.525 31.1262C125.525 31.736 125.647 32.3398 125.884 32.9022C126.121 33.4647 126.468 33.9747 126.906 34.4026C127.343 34.8305 127.861 35.1677 128.431 35.3946C129 35.6215 129.61 35.7337 130.223 35.7245L114.3 35.7315V35.7295C115.527 35.729 116.704 35.244 117.571 34.3813C118.439 33.5185 118.926 32.3487 118.925 31.1292C118.924 29.9097 118.436 28.7403 117.568 27.8783C116.7 27.0163 115.523 26.5324 114.296 26.5329ZM186.656 135.631C186.098 141.131 181.161 145.14 175.628 144.585C170.095 144.031 166.061 139.123 166.619 133.624C167.176 128.124 172.115 124.116 177.648 124.67C183.182 125.225 187.215 130.132 186.657 135.631" fill="white"/>
<path d="M195.214 156.496L179.824 169.542M181.347 141.729L194.098 148.916L181.347 141.729Z" stroke="white" stroke-width="2"/>
<path fill-rule="evenodd" clip-rule="evenodd" d="M186.802 170.113C186.721 171.016 186.461 171.894 186.036 172.697C185.611 173.5 185.03 174.21 184.327 174.788C183.624 175.366 182.812 175.799 181.939 176.063C181.066 176.327 180.149 176.416 179.241 176.325C178.334 176.234 177.453 175.965 176.651 175.533C175.848 175.101 175.14 174.515 174.567 173.81C173.994 173.104 173.568 172.292 173.313 171.421C173.058 170.551 172.979 169.638 173.082 168.737C173.285 166.945 174.191 165.305 175.604 164.172C177.016 163.04 178.82 162.506 180.626 162.687C182.431 162.868 184.092 163.749 185.248 165.139C186.404 166.529 186.963 168.316 186.802 170.113ZM205.639 153.336C205.555 154.243 205.29 155.125 204.861 155.931C204.432 156.736 203.847 157.449 203.139 158.029C202.431 158.608 201.615 159.042 200.737 159.307C199.86 159.571 198.938 159.66 198.026 159.568C197.113 159.477 196.228 159.207 195.421 158.774C194.615 158.34 193.902 157.753 193.325 157.045C192.748 156.336 192.318 155.522 192.059 154.647C191.8 153.773 191.718 152.856 191.818 151.95C192.017 150.14 192.928 148.481 194.351 147.335C195.775 146.189 197.597 145.648 199.42 145.831C201.243 146.014 202.919 146.905 204.084 148.311C205.249 149.716 205.808 151.523 205.639 153.336Z" fill="white"/>
<path fill-rule="evenodd" clip-rule="evenodd" d="M153.775 192.439C153.775 193.03 153.539 193.597 153.119 194.015C152.698 194.432 152.128 194.667 151.534 194.667C150.939 194.667 150.369 194.432 149.949 194.015C149.528 193.597 149.292 193.03 149.292 192.439C149.292 191.848 149.528 191.282 149.949 190.864C150.369 190.446 150.939 190.211 151.534 190.211C152.128 190.211 152.698 190.446 153.119 190.864C153.539 191.282 153.775 191.848 153.775 192.439V192.439ZM227.763 115.967C227.763 116.558 227.527 117.125 227.107 117.543C226.686 117.96 226.116 118.195 225.521 118.195C224.926 118.195 224.356 117.96 223.936 117.543C223.515 117.125 223.279 116.558 223.279 115.967C223.279 115.376 223.515 114.809 223.936 114.391C224.356 113.974 224.926 113.739 225.521 113.739C226.115 113.739 226.685 113.974 227.106 114.391C227.526 114.809 227.762 115.376 227.762 115.967H227.763ZM218.795 151.085C218.795 151.377 218.736 151.667 218.624 151.938C218.511 152.208 218.346 152.454 218.137 152.661C217.929 152.868 217.682 153.032 217.41 153.144C217.138 153.256 216.846 153.313 216.551 153.313C216.257 153.313 215.965 153.255 215.693 153.143C215.421 153.031 215.174 152.867 214.966 152.66C214.758 152.453 214.592 152.207 214.48 151.937C214.367 151.666 214.309 151.376 214.309 151.084C214.309 150.492 214.546 149.926 214.966 149.508C215.387 149.089 215.957 148.855 216.552 148.855C217.147 148.855 217.717 149.089 218.138 149.508C218.558 149.926 218.795 150.492 218.795 151.084V151.085ZM178.982 107.524C178.989 107.821 178.935 108.116 178.826 108.392C178.716 108.667 178.552 108.919 178.343 109.131C178.134 109.343 177.885 109.511 177.609 109.626C177.334 109.741 177.039 109.8 176.74 109.8C176.442 109.8 176.146 109.741 175.871 109.626C175.596 109.511 175.347 109.343 175.138 109.131C174.929 108.919 174.765 108.667 174.655 108.392C174.545 108.116 174.492 107.821 174.498 107.524C174.511 106.941 174.752 106.387 175.171 105.979C175.59 105.571 176.154 105.343 176.74 105.343C177.327 105.343 177.89 105.571 178.309 105.979C178.728 106.387 178.97 106.941 178.982 107.524ZM197.519 92.0118C197.525 92.3084 197.472 92.6033 197.362 92.8792C197.252 93.155 197.088 93.4063 196.879 93.6183C196.671 93.8304 196.421 93.9988 196.146 94.1138C195.871 94.2288 195.575 94.288 195.277 94.288C194.978 94.288 194.683 94.2288 194.408 94.1138C194.132 93.9988 193.883 93.8304 193.674 93.6183C193.465 93.4063 193.301 93.155 193.192 92.8792C193.082 92.6033 193.028 92.3084 193.035 92.0118C193.047 91.4289 193.289 90.8741 193.708 90.4663C194.127 90.0585 194.69 89.8301 195.277 89.8301C195.863 89.8301 196.427 90.0585 196.846 90.4663C197.265 90.8741 197.507 91.4289 197.519 92.0118V92.0118ZM204.346 180.795C204.346 181.386 204.11 181.953 203.689 182.371C203.268 182.789 202.698 183.024 202.103 183.024C201.508 183.024 200.938 182.789 200.517 182.371C200.097 181.953 199.861 181.386 199.861 180.795C199.861 180.204 200.097 179.637 200.517 179.219C200.938 178.801 201.508 178.566 202.103 178.566C202.698 178.566 203.268 178.801 203.689 179.219C204.11 179.637 204.346 180.204 204.346 180.795V180.795Z" stroke="white" stroke-width="2"/>
<path d="M223.278 117.164L210.325 125.086L194.879 117.163V94.2427M216.802 153.313L214.873 173.551L203.848 179.557L216.802 153.313ZM175.698 174.86L169.286 184.7H157.825L153.277 191.202L175.698 174.86ZM176.989 125.103V109.257V125.103Z" stroke="white" stroke-width="2"/>
<path fill-rule="evenodd" clip-rule="evenodd" d="M168.562 65.7126H164.576C163.308 65.7091 162.093 65.2071 161.197 64.3162C160.3 63.4253 159.795 62.2179 159.791 60.9579C159.794 59.6976 160.3 58.49 161.196 57.5989C162.093 56.7077 163.308 56.2056 164.576 56.2021H168.562C169.83 56.2056 171.045 56.7077 171.942 57.5989C172.838 58.49 173.343 59.6976 173.347 60.9579C173.343 62.2179 172.838 63.4253 171.941 64.3162C171.045 65.2071 169.83 65.7091 168.562 65.7126Z" fill="white"/>
<path fill-rule="evenodd" clip-rule="evenodd" d="M176.87 29.7099C176.87 13.3852 190.185 0.150879 206.611 0.150879C223.035 0.150879 236.352 13.3852 236.352 29.7099C236.352 46.0335 223.035 59.2688 206.611 59.2688C190.185 59.2688 176.87 46.0335 176.87 29.7099Z" fill="#1890FF"/>
<path fill-rule="evenodd" clip-rule="evenodd" d="M208.275 38.09C208.779 38.5913 209.067 39.2351 209.067 40.0232C209.067 40.8113 208.778 41.4921 208.275 41.9924C207.698 42.4938 207.05 42.7444 206.257 42.7444C205.465 42.7444 204.815 42.4587 204.311 41.9573C203.734 41.456 203.484 40.8113 203.484 40.0232C203.484 39.2351 203.734 38.5913 204.311 38.09C204.815 37.5887 205.465 37.338 206.258 37.338C207.05 37.338 207.733 37.5887 208.275 38.09ZM212.598 18.5749C214.038 19.8272 214.76 21.5458 214.76 23.7306C214.76 25.4472 214.329 26.869 213.53 27.992C213.462 28.0883 213.392 28.1725 213.31 28.2577C212.89 28.6879 211.887 29.6073 210.328 30.964C209.721 31.4337 209.228 32.0335 208.887 32.7186C208.523 33.4534 208.337 34.2629 208.346 35.082V35.5833H204.203V35.082C204.203 33.7213 204.42 32.5392 204.923 31.5726C205.391 30.606 206.797 29.102 209.138 27.0244L209.572 26.5231C210.221 25.736 210.545 24.8757 210.545 23.9813C210.545 22.7981 210.183 21.8677 209.536 21.1888C208.852 20.507 207.878 20.1852 206.652 20.1852C205.103 20.1852 203.987 20.6504 203.266 21.619C202.892 22.1203 202.639 22.757 202.499 23.5281C202.412 23.9885 202.165 24.4041 201.802 24.7027C201.439 25.0013 200.982 25.1639 200.511 25.1625H200.507C199.218 25.1625 198.23 23.9763 198.509 22.7259C198.849 21.2039 199.538 19.9385 200.6 18.9318C202.15 17.4278 204.239 16.6758 206.906 16.6758C209.246 16.6758 211.157 17.2844 212.598 18.5749Z" fill="white"/>
<path fill-rule="evenodd" clip-rule="evenodd" d="M53.0007 75.9351C53.0007 75.9351 75.0037 81.3094 80.5493 91.9228C86.1737 102.692 74.1411 101.208 64.6802 96.871C53.7241 91.8496 39.7616 85.0173 53.0007 75.9351Z" fill="#FFB594"/>
<path fill-rule="evenodd" clip-rule="evenodd" d="M91.7839 67.2848L91.3309 70.1855C90.5713 70.6769 86.5409 67.5154 86.5409 67.5154L84.8813 68.2654L83.5234 62.5662C83.5234 62.5662 90.3987 57.9649 92.5193 57.5347C94.993 57.0324 102.491 58.4773 103.314 59.8188C103.314 59.8188 104.646 60.3061 101.067 60.5107C97.4879 60.7142 95.9797 60.9589 94.2172 63.6511C92.4548 66.3443 91.7839 67.2848 91.7839 67.2848Z" fill="#FFC6A0"/>
<path fill-rule="evenodd" clip-rule="evenodd" d="M129.688 111.266C127.038 103.521 123.484 98.0502 120.692 95.746C117.161 92.8323 111.269 93.5151 109.226 91.5478C107.944 90.3135 105.982 90.3476 105.982 90.3476C105.982 90.3476 90.8695 87.1812 89.0051 86.8593C86.6142 86.4482 86.8624 86.1434 82.8976 85.4505C81.3137 83.5384 79.9548 84.3255 79.9548 84.3255L72.7818 82.9388C71.9213 81.4629 70.3374 81.9131 70.3374 81.9131L67.8476 81.0137C66.188 91.0164 60.0391 94.8466 60.0391 94.8466C61.8499 95.9716 75.881 103.169 75.881 103.169L81.0332 140.378C81.0332 140.378 77.6828 146.088 82.3911 149.512C82.3911 149.512 102.45 145.759 117.621 149.182C117.621 149.182 120.695 146.629 118.602 140.352C119.129 137.334 120.008 132.067 120.353 128.699C120.742 129.473 122.39 130.622 123.521 132.185C123.521 132.185 133.011 124.801 134.671 118.136C133.831 117.411 133.059 116.547 132.384 115.676C131.812 114.938 132.022 113.615 131.612 112.952C130.937 111.865 129.792 111.57 129.688 111.266Z" fill="white"/>
<path fill-rule="evenodd" clip-rule="evenodd" d="M102.484 290.375C102.484 290.375 106.817 292.421 109.903 291.398C112.749 290.456 114.473 292.068 117.046 292.58C119.619 293.091 123.981 293.683 128.835 291.316C128.732 285.792 121.886 287.326 116.77 284.585C114.184 283.202 112.952 279.851 113.14 275.763H103.655C103.655 275.763 102.25 286.311 102.484 290.375Z" fill="#CBD1D1"/>
<path fill-rule="evenodd" clip-rule="evenodd" d="M102.461 290.203C102.461 290.203 104.911 291.477 109.28 290.857C112.365 290.419 113.025 291.34 116.769 291.891C120.514 292.443 127.588 291.822 128.697 290.995C129.113 292.098 128.351 293.063 128.351 293.063C128.351 293.063 126.825 293.668 123.496 293.89C121.448 294.026 117.645 294.181 115.822 293.385C114.019 292.006 110.528 291.477 110.043 293.144C106.09 294.096 102.623 292.857 102.623 292.857L102.461 290.203Z" fill="#2B0849"/>
<path fill-rule="evenodd" clip-rule="evenodd" d="M109.8 276.384H112.921C112.921 276.384 112.817 283.104 117.497 284.965C112.816 285.584 108.864 282.656 109.8 276.384Z" fill="#A4AABA"/>
<path fill-rule="evenodd" clip-rule="evenodd" d="M58.5512 272.731C58.5512 272.731 56.4256 280.167 54.0266 285.07C52.2126 288.775 49.7642 292.582 59.5399 292.582C66.2468 292.582 68.5722 292.101 67.0286 285.965C65.4851 279.829 67.297 272.731 67.297 272.731H58.5512Z" fill="#CBD1D1"/>
<path fill-rule="evenodd" clip-rule="evenodd" d="M52.4316 290.169C52.4316 290.169 54.5471 291.341 59.1232 291.341C65.2601 291.341 67.4452 289.687 67.4452 289.687C67.4452 289.687 68.0526 290.804 66.8208 291.858C65.819 292.715 63.1919 293.453 59.3654 293.408C55.1837 293.36 53.4818 292.84 52.5698 292.237C51.7375 291.685 51.8767 290.653 52.4316 290.169Z" fill="#2B0849"/>
<path fill-rule="evenodd" clip-rule="evenodd" d="M59.4358 274.639C59.4358 274.639 59.4691 276.162 59.1191 277.577C58.767 279.001 58.0315 280.689 57.9791 281.727C57.9206 282.881 62.5562 283.311 63.1797 281.761C63.8052 280.21 64.4851 275.317 65.1096 274.489C65.7341 273.662 60.1632 272.365 59.4358 274.64" fill="#A4AABA"/>
<path fill-rule="evenodd" clip-rule="evenodd" d="M101.042 278.86L114.538 278.952C114.538 278.952 115.848 224.286 116.408 214.377C116.967 204.468 120.217 170.897 117.419 151.08L104.76 150.434L81.7093 151.216C81.7093 151.216 81.2714 155.193 80.5037 161.219C80.4402 161.716 79.8157 162.064 79.7481 162.588C79.6724 163.174 80.1748 163.945 80.0709 164.559C77.686 178.677 73.6375 197.752 71.2495 211.361C71.1325 212.029 70.0046 212.373 69.7786 214.059C69.7383 214.362 69.9915 215.588 69.8916 215.859C62.9578 234.653 58.8457 263.829 55.4883 277.91L70.2245 277.896C70.2245 277.896 72.441 269.303 74.2902 260.88C77.1261 247.96 97.6057 175.642 97.6057 175.642L100.648 175.12L101.701 221.594C101.701 221.594 101.475 222.832 102.041 223.62C102.606 224.407 101.476 224.746 101.645 225.87L102.041 227.668C102.041 227.668 101.588 234.866 101.135 239.59C100.683 244.313 101.042 278.86 101.042 278.86Z" fill="#7BB2F9"/>
<path d="M107.801 225.345C107.801 225.345 110.6 224.232 113.958 221.452M77.2583 221.82C78.4215 221.914 81.332 219.795 84.2748 216.872L77.2583 221.82Z" stroke="#648BD8" stroke-width="1.051" stroke-linecap="round" stroke-linejoin="round"/>
<path d="M108.724 222.295C108.724 222.295 111.522 221.182 114.88 218.4" stroke="#648BD8" stroke-linecap="round" stroke-linejoin="round"/>
<path d="M57.1167 274.753H70.5445M75.9015 224.969C75.9015 224.969 78.5467 224.376 82.464 221.595L75.9015 224.969ZM87.2914 151.64C87.019 154.754 87.594 160.188 82.917 160.787L87.2914 151.64ZM105.042 149.881C105.042 149.881 105.153 163.931 103.738 164.987C101.499 166.655 100.721 166.936 100.721 166.936L105.042 149.881ZM101.173 150.441C101.173 150.441 101.208 163.355 99.9666 174.883L101.173 150.441ZM95.002 175.982C95.002 175.982 102.278 174.314 104.516 174.314L95.002 175.982ZM75.4677 206.012C75.1553 207.54 74.8261 209.064 74.48 210.585C74.48 210.585 73.0091 212.421 73.4621 214.371C73.915 216.32 72.5067 216.421 68.433 229.767C66.722 235.372 63.9032 248.408 62.0288 257.438L61.7957 258.561L75.4677 206.012ZM76.8589 197.937C76.5743 199.528 76.2777 201.117 75.9691 202.703L76.8589 197.937ZM83.822 152.241L82.6154 162.736C82.6154 162.736 81.5087 162.886 82.1109 164.986C82.2249 166.335 79.4133 180.803 76.8851 195.497L83.822 152.241Z" stroke="#648BD8" stroke-width="1.051" stroke-linecap="round" stroke-linejoin="round"/>
<path fill-rule="evenodd" clip-rule="evenodd" d="M117.77 148.217C117.77 148.217 100.572 145.105 81.5592 148.418C81.7186 150.939 81.5562 152.579 81.5562 152.579C81.5562 152.579 96.3731 149.753 117.542 152.266C117.796 149.905 117.77 148.217 117.77 148.217Z" fill="#192064"/>
<path fill-rule="evenodd" clip-rule="evenodd" d="M107.763 151.17L107.766 146.246C107.768 146.035 107.687 145.832 107.54 145.679C107.394 145.527 107.193 145.437 106.981 145.429C104.52 145.337 101.87 145.32 99.0759 145.415C98.8626 145.422 98.6606 145.511 98.5122 145.664C98.3638 145.816 98.2805 146.02 98.2799 146.232L98.2769 151.151C98.2764 151.26 98.2979 151.367 98.3401 151.468C98.3824 151.568 98.4444 151.659 98.5226 151.735C98.6007 151.811 98.6935 151.87 98.7953 151.91C98.8971 151.95 99.0059 151.969 99.1152 151.966C101.521 151.906 104.132 151.902 106.914 151.983C107.023 151.987 107.133 151.968 107.235 151.929C107.338 151.89 107.432 151.831 107.511 151.755C107.59 151.68 107.653 151.589 107.697 151.489C107.74 151.388 107.762 151.28 107.763 151.171" fill="white"/>
<path fill-rule="evenodd" clip-rule="evenodd" d="M106.638 150.235L106.64 147.151C106.641 146.984 106.576 146.822 106.46 146.701C106.343 146.581 106.184 146.51 106.015 146.504C104.043 146.439 102.07 146.436 100.098 146.493C99.9276 146.499 99.7664 146.569 99.6479 146.69C99.5293 146.811 99.4626 146.973 99.4619 147.142V150.222C99.4614 150.308 99.4781 150.393 99.5112 150.473C99.5443 150.552 99.593 150.624 99.6546 150.684C99.7161 150.744 99.7891 150.791 99.8693 150.823C99.9496 150.855 100.035 150.87 100.122 150.868C102.07 150.826 104.019 150.829 105.967 150.879C106.332 150.889 106.638 150.598 106.638 150.235Z" fill="#192064"/>
<path d="M102.38 175.034L103.286 219.795C103.286 219.795 103.965 221.37 103.059 222.495C102.154 223.62 105.549 223.169 103.965 224.744C102.381 226.318 104.87 225.869 103.965 228.118C103.363 229.611 102.962 249.274 102.859 263.358M101.65 275.753H114.098H101.65ZM102.834 270.855C102.84 274.251 102.876 276.66 102.946 277.378L102.834 270.855ZM102.849 264.857C102.84 266.306 102.835 267.756 102.834 269.205L102.849 264.857Z" stroke="#648BD8" stroke-width="1.051" stroke-linecap="round" stroke-linejoin="round"/>
<path fill-rule="evenodd" clip-rule="evenodd" d="M47.7909 83.2505C47.7909 83.2505 47.2703 89.3117 55.0778 88.8174C66.3769 88.1035 64.3774 79.4473 86.8969 67.1044C86.104 64.3891 84.4283 62.3477 84.4283 62.3477C84.4283 62.3477 73.2623 65.466 61.6444 70.4152C54.8185 73.323 48.1309 76.7842 47.7909 83.2505ZM105.884 90.901L106.834 85.5146L97.8712 74.0539L92.7896 79.4403L91.0342 87.2953C91.0206 87.3536 91.0236 87.4145 91.0428 87.4711C91.062 87.5278 91.0968 87.578 91.1432 87.6162C92.1167 88.4183 97.7007 92.6426 105.617 91.1697C105.684 91.1569 105.745 91.1244 105.792 91.0764C105.84 91.0284 105.872 90.9673 105.883 90.901" fill="#FFC6A0"/>
<path fill-rule="evenodd" clip-rule="evenodd" d="M95.2735 79.1994C95.2735 79.1994 90.7004 76.3388 92.8199 72.3261C94.4573 69.2278 97.3729 73.4621 97.3729 73.4621C97.3729 73.4621 97.8975 69.8104 100.521 69.8104C101.046 68.7676 102.096 65.6372 102.096 65.6372C102.096 65.6372 113.643 68.2452 115.742 68.7666C115.742 73.9835 113.418 88.2426 107.833 88.6808C98.8619 89.3857 95.2735 79.1994 95.2735 79.1994Z" fill="#FFC6A0"/>
<path fill-rule="evenodd" clip-rule="evenodd" d="M115.382 73.2426C118.006 71.156 118.883 63.4946 118.883 63.4946C118.883 63.4946 116.382 63.0032 112.184 61.4391C107.459 59.3525 99.2726 56.6793 94.5492 62.4177C84.7956 65.6493 92.481 82.2938 92.481 82.2938L95.218 79.2647C95.218 79.2647 91.2482 75.9689 93.1196 73.005C95.3088 69.5337 97.0743 74.0808 97.0743 74.0808C97.0743 74.0808 97.717 71.6875 100.687 70.7299C101.045 70.018 101.732 68.0487 102.132 66.8696C102.217 66.6152 102.395 66.4019 102.631 66.2713C102.867 66.1407 103.143 66.1023 103.406 66.1637C105.827 66.7232 112.16 68.1881 114.862 68.8328C115.389 68.9582 115.741 69.4495 115.69 69.9859L115.382 73.2426Z" fill="#520038"/>
<path fill-rule="evenodd" clip-rule="evenodd" d="M106.406 75.8676C106.302 76.4792 105.819 76.9083 105.327 76.8261C104.833 76.7429 104.518 76.1804 104.622 75.5688C104.726 74.9571 105.21 74.528 105.702 74.6102C106.194 74.6924 106.509 75.2559 106.406 75.8676ZM113.624 77.5019C113.52 78.1136 113.037 78.5427 112.545 78.4605C112.053 78.3773 111.738 77.8148 111.841 77.2031C111.945 76.5915 112.428 76.1623 112.92 76.2446C113.412 76.3268 113.727 76.8893 113.624 77.5019Z" fill="#552950"/>
<path d="M111.605 74.6406L110.701 76.2549L110.4 80.6236H108.152" stroke="#DB836E" stroke-width="1.118" stroke-linecap="round" stroke-linejoin="round"/>
<path d="M112.327 74.2804C112.327 74.2804 114.133 73.5625 114.855 74.8188" stroke="#5C2552" stroke-width="1.118" stroke-linecap="round" stroke-linejoin="round"/>
<path d="M93.7036 74.0809C93.7036 74.0809 94.1848 72.9639 94.8265 73.363C95.4691 73.7621 96.1117 74.7998 95.3894 75.3583C94.6661 75.9158 95.5498 77.0328 95.5498 77.0328" stroke="#DB836E" stroke-width="1.118" stroke-linecap="round" stroke-linejoin="round"/>
<path d="M104.701 72.7251C104.701 72.7251 106.547 73.8411 108.875 73.6817" stroke="#5C2552" stroke-width="1.118" stroke-linecap="round" stroke-linejoin="round"/>
<path d="M96.0308 81.0225C96.0308 81.0225 98.3592 88.4423 106.547 88.6819M105.102 81.581C105.102 81.581 107.349 82.7772 109.517 82.7772L105.102 81.581ZM106.066 84.1338C106.066 84.1338 107.028 84.5328 107.59 84.4526L106.066 84.1338Z" stroke="#DB836E" stroke-width="1.118" stroke-linecap="round" stroke-linejoin="round"/>
<path d="M70.1106 82.4756C70.1106 82.4756 69.3782 91.7825 61.834 96.7196M82.6708 89.2236C82.6708 89.2236 83.1247 94.8857 77.6921 102.045L82.6708 89.2236Z" stroke="#E4EBF7" stroke-width="1.101" stroke-linecap="round" stroke-linejoin="round"/>
<path d="M131.05 122.794C131.05 122.794 125.732 130.217 121.545 133.591" stroke="#E4EBF7" stroke-width="1.051" stroke-linecap="round" stroke-linejoin="round"/>
<path d="M120.862 107.216C120.862 107.216 121.318 111.594 118.716 139.364" stroke="#E4EBF7" stroke-width="1.101" stroke-linecap="round" stroke-linejoin="round"/>
<path fill-rule="evenodd" clip-rule="evenodd" d="M151.856 151.237H101.578C101.307 151.237 101.048 151.131 100.857 150.941C100.666 150.751 100.559 150.493 100.559 150.225V118.452C100.559 117.893 101.015 117.439 101.578 117.439H151.856C152.418 117.439 152.874 117.893 152.874 118.452V150.225C152.874 150.493 152.767 150.751 152.576 150.941C152.385 151.131 152.126 151.237 151.856 151.237Z" fill="#F2D7AD"/>
<path fill-rule="evenodd" clip-rule="evenodd" d="M152.12 151.237H132.081V117.44H153.049V150.314C153.049 150.558 152.951 150.793 152.777 150.966C152.603 151.139 152.367 151.236 152.121 151.236" fill="#F4D19D"/>
<path fill-rule="evenodd" clip-rule="evenodd" d="M125.147 127.839H94.2392C94.1434 127.839 94.0494 127.813 93.9674 127.764C93.8854 127.714 93.8187 127.644 93.7744 127.559C93.7302 127.475 93.7101 127.38 93.7165 127.285C93.7228 127.19 93.7553 127.098 93.8105 127.021L100.247 117.883C100.442 117.605 100.761 117.44 101.104 117.44H132.472L125.147 127.839Z" fill="#F2D7AD"/>
<path fill-rule="evenodd" clip-rule="evenodd" d="M125.284 128.391H100.628V127.871H125.011L132.258 117.583L132.686 117.882L125.284 128.391Z" fill="#CC9B6E"/>
<path fill-rule="evenodd" clip-rule="evenodd" d="M160.199 127.839H141.365C141.04 127.839 140.719 127.764 140.429 127.619C140.138 127.475 139.886 127.265 139.691 127.007L132.472 117.44H152.613C153.108 117.44 153.572 117.671 153.868 118.064L160.618 127.008C160.676 127.085 160.711 127.177 160.72 127.273C160.729 127.369 160.71 127.466 160.667 127.552C160.623 127.638 160.556 127.711 160.474 127.762C160.391 127.813 160.296 127.84 160.199 127.84" fill="#F4D19D"/>
<path fill-rule="evenodd" clip-rule="evenodd" d="M159.744 128.423H140.189L132.262 117.92L132.681 117.609L140.449 127.903H159.744V128.423ZM132.21 150.689L132.177 142.49L132.701 142.488L132.733 150.687L132.21 150.689Z" fill="#CC9B6E"/>
<path fill-rule="evenodd" clip-rule="evenodd" d="M132.166 139.758L132.085 118.286L132.609 118.284L132.689 139.756L132.166 139.758ZM113.366 140.91L112.864 140.766L114.356 135.585L114.858 135.729L113.366 140.91ZM109.897 141.038L107.194 138.095L109.882 134.652L110.296 134.971L107.878 138.068L110.283 140.687L109.897 141.038ZM118.139 141.038L117.752 140.687L120.157 138.068L117.738 134.971L118.152 134.652L120.841 138.095L118.139 141.038Z" fill="#CC9B6E"/>
<path fill-rule="evenodd" clip-rule="evenodd" d="M156.181 131.845L153.04 129.88L153.078 133.403L152.026 133.496C150.329 133.611 148.36 133.726 147.195 133.726C145.276 133.726 144.478 135.99 149.444 136.381L146.776 135.784C146.776 135.784 144.589 137.104 147.284 138.09C147.284 138.09 145.69 139.31 147.85 140.677C147.261 144.19 153.144 144.746 155.035 144.276C156.928 143.805 159.306 141.911 159.562 139.103C159.845 136.009 158.664 133.656 156.182 131.845" fill="#FFC6A0"/>
<path d="M155.546 133.535C155.546 133.535 148.967 134.006 147.112 133.908C145.26 133.809 145.191 136.104 149.492 136.178C153.264 136.328 154.991 136.134 154.991 136.134" stroke="#DB836E" stroke-width="1.051" stroke-linecap="round" stroke-linejoin="round"/>
<path d="M146.945 135.841C145.078 137.19 147.511 138.202 147.511 138.202C147.511 138.202 151.019 139.103 154.3 138.821" stroke="#DB836E" stroke-width="1.051" stroke-linecap="round" stroke-linejoin="round"/>
<path d="M53.8057 89.1254C57.3699 88.7875 62.3032 87.874 67.5079 81.3506M153.734 141.69C153.734 141.69 147.399 141.801 146.945 139.552C146.72 138.203 147.399 138.146 147.399 138.146L153.734 141.69ZM147.907 140.846C147.907 140.846 146.794 144.014 153.395 144.388L147.907 140.846ZM153.04 129.88V133.367V129.88Z" stroke="#DB836E" stroke-width="1.051" stroke-linecap="round" stroke-linejoin="round"/>
<path fill-rule="evenodd" clip-rule="evenodd" d="M170.559 248.583C168.78 248.583 167.075 247.881 165.817 246.631C164.56 245.381 163.853 243.686 163.853 241.918V175.274C163.853 174.399 164.026 173.532 164.363 172.724C164.7 171.915 165.194 171.18 165.817 170.561C166.44 169.943 167.179 169.452 167.993 169.117C168.806 168.782 169.678 168.609 170.559 168.609C171.439 168.609 172.311 168.782 173.125 169.117C173.939 169.452 174.678 169.943 175.301 170.561C175.923 171.18 176.417 171.915 176.754 172.724C177.091 173.532 177.265 174.399 177.265 175.274V241.918C177.265 243.686 176.558 245.381 175.301 246.631C174.043 247.881 172.337 248.583 170.559 248.583Z" fill="#5BA02E"/>
<path fill-rule="evenodd" clip-rule="evenodd" d="M178.605 247.916C176.827 247.916 175.122 247.214 173.864 245.964C172.607 244.714 171.9 243.019 171.9 241.252V207.931C171.89 207.049 172.055 206.173 172.387 205.355C172.719 204.537 173.211 203.793 173.835 203.165C174.459 202.538 175.202 202.039 176.021 201.699C176.839 201.359 177.718 201.184 178.606 201.184C179.493 201.184 180.372 201.359 181.191 201.699C182.01 202.039 182.753 202.538 183.376 203.165C184 203.793 184.492 204.537 184.824 205.355C185.157 206.173 185.322 207.049 185.311 207.931V241.252C185.311 243.019 184.605 244.715 183.347 245.964C182.089 247.214 180.384 247.916 178.605 247.916Z" fill="#92C110"/>
<path fill-rule="evenodd" clip-rule="evenodd" d="M188.593 294H160.827C159.974 294 159.156 293.663 158.553 293.064C157.95 292.465 157.611 291.652 157.611 290.804V244.547C157.611 243.699 157.95 242.886 158.553 242.287C159.156 241.688 159.974 241.351 160.827 241.351H188.594C189.447 241.351 190.265 241.688 190.868 242.287C191.471 242.886 191.809 243.699 191.809 244.547V290.804C191.809 291.652 191.471 292.465 190.868 293.064C190.265 293.663 189.447 294 188.594 294" fill="#F2D7AD"/>
<path d="M90.2666 89.3198C90.2666 89.3198 98.1114 94.7182 107.014 92.1694" stroke="#E4EBF7" stroke-width="1.101" stroke-linecap="round" stroke-linejoin="round"/>
</svg>
