<svg width="254" height="294" viewBox="0 0 254 294" fill="none" xmlns="http://www.w3.org/2000/svg">
<path fill-rule="evenodd" clip-rule="evenodd" d="M0.5 128.201V126.091C0.5 56.6749 56.773 0.400879 126.19 0.400879H128.3C197.716 0.400879 253.99 56.6749 253.99 126.091V128.201C253.99 197.618 197.716 253.891 128.3 253.891H126.19C56.773 253.891 0.5 197.618 0.5 128.201Z" fill="#E4EBF7"/>
<path fill-rule="evenodd" clip-rule="evenodd" d="M40.489 132.108C40.3792 133.197 40.0562 134.253 39.5382 135.217C39.0201 136.181 38.3174 137.033 37.4699 137.725C36.6225 138.418 35.647 138.936 34.5992 139.251C33.5514 139.567 32.4517 139.673 31.363 139.563C30.2742 139.453 29.2178 139.13 28.2539 138.612C27.2901 138.094 26.4377 137.391 25.7454 136.544C25.0531 135.696 24.5346 134.721 24.2193 133.673C23.904 132.625 23.7982 131.526 23.908 130.437C24.1315 128.24 25.2182 126.221 26.9291 124.825C28.6401 123.429 30.8354 122.769 33.0327 122.99C35.2299 123.212 37.2494 124.296 38.6473 126.006C40.0453 127.716 40.7073 129.91 40.488 132.108" fill="white"/>
<path d="M49.1652 147.884L36.4312 158.745M37.6902 135.59L48.2432 141.573L37.6902 135.59Z" stroke="white" stroke-width="2"/>
<path fill-rule="evenodd" clip-rule="evenodd" d="M40.61 160.816C40.5408 161.566 40.3237 162.295 39.9712 162.961C39.6188 163.627 39.1379 164.217 38.5565 164.696C37.975 165.175 37.3044 165.534 36.5834 165.752C35.8624 165.971 35.1052 166.045 34.3556 165.969C33.606 165.893 32.8788 165.67 32.216 165.312C31.5531 164.954 30.9678 164.468 30.4936 163.883C30.0195 163.297 29.6661 162.623 29.4537 161.901C29.2412 161.178 29.1741 160.42 29.256 159.671C29.4197 158.175 30.1678 156.804 31.3374 155.857C32.507 154.91 34.0034 154.464 35.5007 154.615C36.998 154.766 38.3751 155.502 39.332 156.664C40.289 157.825 40.7483 159.318 40.61 160.816ZM58.443 144.6C58.3707 145.354 58.1501 146.085 57.7942 146.753C57.4382 147.421 56.9537 148.012 56.3686 148.493C55.7836 148.973 55.1094 149.333 54.3848 149.552C53.6602 149.771 52.8995 149.845 52.1464 149.769C51.3932 149.693 50.6625 149.469 49.9961 149.11C49.3298 148.751 48.7409 148.264 48.2634 147.676C47.7858 147.089 47.429 146.413 47.2134 145.688C46.9978 144.962 46.9277 144.201 47.007 143.448C47.1628 141.934 47.9129 140.543 49.0927 139.582C50.2726 138.62 51.7859 138.165 53.3004 138.318C54.8149 138.471 56.207 139.218 57.1711 140.396C58.1353 141.574 58.5927 143.086 58.443 144.601V144.6ZM100.156 27.4341L130.18 27.4211C130.787 27.4208 131.387 27.3011 131.947 27.0687C132.508 26.8364 133.017 26.4959 133.446 26.0668C133.874 25.6377 134.214 25.1284 134.446 24.5679C134.678 24.0074 134.797 23.4067 134.797 22.8001C134.797 22.1935 134.677 21.5929 134.445 21.0326C134.212 20.4723 133.872 19.9633 133.443 19.5346C133.014 19.1058 132.504 18.7658 131.944 18.5339C131.383 18.3021 130.783 18.1828 130.176 18.1831L100.152 18.1961C98.9436 18.2218 97.7934 18.72 96.9481 19.5838C96.1028 20.4477 95.6296 21.6084 95.6301 22.8171C95.6307 24.0257 96.1048 25.186 96.9509 26.0492C97.797 26.9123 98.9476 27.4095 100.156 27.4341ZM111.64 45.8961L141.663 45.8831C142.278 45.8956 142.889 45.7853 143.46 45.5587C144.032 45.3321 144.552 44.9937 144.991 44.5633C145.43 44.1329 145.779 43.6193 146.017 43.0524C146.255 42.4855 146.377 41.8769 146.377 41.2621C146.377 40.6473 146.254 40.0387 146.015 39.472C145.777 38.9054 145.428 38.392 144.988 37.962C144.549 37.532 144.028 37.1941 143.456 36.9679C142.885 36.7418 142.274 36.6321 141.659 36.6451L111.635 36.6581C110.41 36.6586 109.235 37.1458 108.369 38.0124C107.504 38.879 107.017 40.0541 107.018 41.2791C107.019 42.5041 107.506 43.6788 108.372 44.5446C109.239 45.4105 110.414 45.8966 111.639 45.8961" fill="white"/>
<path fill-rule="evenodd" clip-rule="evenodd" d="M114.03 27.4211V27.4191L129.92 27.4121C128.695 27.4128 127.52 27.9001 126.654 28.7668C125.789 29.6334 125.303 30.8086 125.303 32.0336C125.304 33.2586 125.791 34.4332 126.658 35.299C127.525 36.1648 128.7 36.6508 129.925 36.6501L114.033 36.6571V36.6551C115.241 36.6294 116.39 36.1315 117.235 35.268C118.08 34.4045 118.553 33.2443 118.553 32.0361C118.552 30.828 118.078 29.6682 117.233 28.8055C116.387 27.9427 115.237 27.4457 114.029 27.4211H114.03ZM150.667 70.0911H146.688C145.423 70.0872 144.211 69.5828 143.316 68.6881C142.422 67.7935 141.918 66.5812 141.914 65.3161C141.918 64.0511 142.422 62.839 143.316 61.9445C144.211 61.05 145.423 60.5458 146.688 60.5421H150.667C151.932 60.5458 153.144 61.0499 154.039 61.9444C154.933 62.8389 155.438 64.051 155.442 65.3161C155.438 66.5814 154.934 67.7938 154.039 68.6885C153.144 69.5831 151.932 70.0874 150.667 70.0911Z" fill="white"/>
<path fill-rule="evenodd" clip-rule="evenodd" d="M172.187 30.2337C172.187 13.8417 185.476 0.553711 201.868 0.553711C218.26 0.553711 231.548 13.8417 231.548 30.2337C231.548 46.6267 218.26 59.9147 201.868 59.9147C185.476 59.9147 172.188 46.6267 172.188 30.2347" fill="#FF603B"/>
<path fill-rule="evenodd" clip-rule="evenodd" d="M204.057 19.4351L203.381 34.4701C203.367 34.8619 203.201 35.2328 202.919 35.5049C202.637 35.777 202.26 35.9291 201.868 35.9291C201.476 35.9291 201.099 35.777 200.817 35.5049C200.535 35.2328 200.369 34.8619 200.355 34.4701L199.68 19.4351C199.669 19.1409 199.717 18.8475 199.823 18.5725C199.928 18.2974 200.087 18.0464 200.291 17.8344C200.496 17.6224 200.741 17.4538 201.012 17.3386C201.283 17.2234 201.574 17.1641 201.868 17.1641C202.163 17.1641 202.454 17.2234 202.725 17.3386C202.996 17.4538 203.241 17.6224 203.445 17.8344C203.65 18.0464 203.809 18.2974 203.914 18.5725C204.019 18.8475 204.068 19.1409 204.057 19.4351ZM203.793 38.8131C204.306 39.2901 204.563 39.9131 204.563 40.6831C204.563 41.4531 204.306 42.0761 203.793 42.5901C203.243 43.0661 202.583 43.3231 201.85 43.3231C201.502 43.3294 201.157 43.2643 200.835 43.1318C200.513 42.9994 200.222 42.8024 199.98 42.5531C199.43 42.0391 199.174 41.4171 199.174 40.6831C199.174 39.9131 199.43 39.2901 199.98 38.8131C200.493 38.3001 201.117 38.0801 201.85 38.0801C202.62 38.0801 203.28 38.3001 203.793 38.8131Z" fill="white"/>
<path fill-rule="evenodd" clip-rule="evenodd" d="M119.8 133.275C124.226 132.677 123.412 132.071 123.879 128.497C124.554 123.317 120.771 111.562 115.617 103.379C114.529 92.6587 103.019 92.1387 103.019 92.1387C103.019 92.1387 107.331 97.0337 107.215 108.338C108.613 113.581 108.019 122.788 108.019 122.788C108.019 122.788 113.274 134.157 119.799 133.275" fill="#FFB594"/>
<path fill-rule="evenodd" clip-rule="evenodd" d="M101.444 91.6097C101.444 91.6097 102.907 91.0267 104.655 92.1917C112.735 93.5897 115.023 98.8977 115.955 103.56C117.819 104.842 117.819 105.89 117.819 107.056C118.184 107.833 119.334 110.086 119.334 110.086C119.334 110.086 112.109 111.834 108.38 116.844C106.981 110.434 101.444 91.6087 101.444 91.6087" fill="white"/>
<path fill-rule="evenodd" clip-rule="evenodd" d="M94.5082 90.5L95.5272 84.685L86.2972 72.811L81.0642 78.392L78.4712 88.255C78.4712 88.255 86.8612 93.383 94.5082 90.501" fill="#FFB594"/>
<path fill-rule="evenodd" clip-rule="evenodd" d="M83.4309 78.2157C83.4309 78.2157 78.8739 75.3477 80.9859 71.3237C82.6179 68.2167 85.5229 72.4627 85.5229 72.4627C85.5229 72.4627 86.0469 68.8007 88.6619 68.8007C89.1849 67.7547 90.2309 64.6167 90.2309 64.6167C90.2309 64.6167 101.738 67.2317 103.831 67.7547C103.83 72.9847 101.514 87.2837 95.9469 87.7237C87.0069 88.4297 83.4309 78.2157 83.4309 78.2157Z" fill="#FFC6A0"/>
<path fill-rule="evenodd" clip-rule="evenodd" d="M103.471 72.2429C106.087 70.1499 106.96 62.4679 106.96 62.4679C106.96 62.4679 104.468 61.9759 100.284 60.4059C95.5759 58.3139 87.4169 55.6349 82.7089 61.3879C73.1689 65.7979 80.6469 81.3179 80.6469 81.3179L83.3759 78.2809C83.3759 78.2809 79.4199 74.9769 81.2839 72.0039C83.4669 68.5239 85.2269 73.0839 85.2269 73.0839C85.2269 73.0839 85.8669 70.6839 88.8269 69.7239C89.1829 69.0099 89.8669 67.0339 90.2669 65.8519C90.3527 65.5971 90.5304 65.3835 90.7652 65.2527C91.0001 65.122 91.2752 65.0835 91.5369 65.1449C93.9469 65.7049 100.26 67.1749 102.954 67.8209C103.478 67.9469 103.83 68.4399 103.779 68.9769L103.471 72.2429Z" fill="#520038"/>
<path fill-rule="evenodd" clip-rule="evenodd" d="M101.72 76.5137C101.616 77.1267 101.135 77.5577 100.644 77.4737C100.154 77.3917 99.8389 76.8277 99.9419 76.2137C100.046 75.6007 100.527 75.1697 101.018 75.2527C101.509 75.3357 101.823 75.8997 101.72 76.5127V76.5137ZM94.7599 75.0737C94.6559 75.6867 94.1749 76.1177 93.6839 76.0337C93.1939 75.9517 92.8789 75.3877 92.9819 74.7737C93.0859 74.1607 93.5669 73.7297 94.0579 73.8137C94.5489 73.8957 94.8629 74.4597 94.7599 75.0737Z" fill="#552950"/>
<path d="M99.7061 73.644L98.8061 75.264L98.5061 79.644H96.2661" stroke="#DB836E" stroke-width="1.063" stroke-linecap="round" stroke-linejoin="round"/>
<path d="M100.426 73.2839C100.426 73.2839 102.226 72.5639 102.946 73.8239" stroke="#5C2552" stroke-width="1.117" stroke-linecap="round" stroke-linejoin="round"/>
<path d="M81.8672 73.0837C81.8672 73.0837 82.3472 71.9637 82.9872 72.3637C83.6272 72.7637 84.2672 73.8037 83.5472 74.3637C82.8272 74.9237 83.7072 76.0437 83.7072 76.0437" stroke="#DB836E" stroke-width="1.117" stroke-linecap="round" stroke-linejoin="round"/>
<path d="M92.8262 71.7236C92.8262 71.7236 94.6662 72.8436 96.9862 72.6836" stroke="#5C2552" stroke-width="1.117" stroke-linecap="round" stroke-linejoin="round"/>
<path d="M84.187 80.0439C84.187 80.0439 85.973 86.5909 93.449 87.9979M93.226 80.6039C93.226 80.6039 95.466 81.8039 97.626 81.8039L93.226 80.6039ZM94.186 83.1639C94.186 83.1639 95.146 83.5639 95.706 83.4839L94.186 83.1639Z" stroke="#DB836E" stroke-width="1.063" stroke-linecap="round" stroke-linejoin="round"/>
<path d="M96.048 91.6626C96.048 91.6626 94.98 94.4836 87.75 93.7676C80.52 93.0506 77.46 88.7236 77.46 88.7236" stroke="#E4EBF7" stroke-width="1.136" stroke-linecap="round" stroke-linejoin="round"/>
<path fill-rule="evenodd" clip-rule="evenodd" d="M78.6262 87.4778C78.6262 87.4778 85.1522 92.4498 95.0962 89.9638C95.0962 89.9638 104.673 90.9838 106.632 95.2858C111.992 107.056 107.175 132.121 106.632 135.248C110.128 139.303 106.166 143.731 106.166 143.731C90.5422 140.183 70.3562 143.131 70.3562 143.131C65.5072 139.585 69.1332 134.087 69.1332 134.087L62.8802 110.32C60.3952 95.0928 63.7132 90.5168 66.4292 89.5768C69.4592 88.5278 74.4692 88.2948 74.4692 88.2948C74.9652 88.2368 75.5492 88.2188 75.8392 88.0618C78.1992 86.7798 78.6262 87.4788 78.6262 87.4788" fill="white"/>
<path fill-rule="evenodd" clip-rule="evenodd" d="M66.3281 89.8101C66.3281 89.8101 59.4531 90.2751 58.7381 97.9661C58.2721 106.823 61.7681 108.92 61.7681 108.92C61.7681 108.92 67.8431 131.022 78.5641 131.877C86.9541 129.701 83.3221 125.175 83.2251 120.457C82.9921 109.153 76.1171 103.56 76.1171 103.56C76.1171 103.56 71.9051 89.8101 66.3281 89.8101Z" fill="#FFC6A0"/>
<path fill-rule="evenodd" clip-rule="evenodd" d="M72.2158 124.225C72.2158 124.225 73.0708 135.489 82.0438 130.711C86.8088 128.175 89.6248 116.883 91.8328 108.143C93.2888 102.375 94.4128 95.9458 94.4128 95.9458L89.4398 94.2368C89.4398 94.2368 87.0318 99.7528 81.6708 106.512C77.3358 111.979 72.5268 117.622 72.2158 124.225Z" fill="#FFC6A0"/>
<path d="M108.963 105.191C108.963 105.191 110.71 107.915 106.632 135.726C109.008 137.942 107.685 141.738 106.399 143.236" stroke="#E4EBF7" stroke-width="1.085" stroke-linecap="round" stroke-linejoin="round"/>
<path fill-rule="evenodd" clip-rule="evenodd" d="M123.762 131.527C123.762 131.527 123.335 134.259 111.992 133.508C96.805 132.502 86.666 130.258 86.666 130.258L87.599 124.458C87.599 124.458 88.322 124.673 97.309 124.39C109.196 124.017 116.023 118.32 122.273 123.368C126.312 126.631 123.762 131.528 123.762 131.528" fill="#FFC6A0"/>
<path fill-rule="evenodd" clip-rule="evenodd" d="M70.74 90.974C70.74 90.974 65.147 86.235 59.686 93.654C56.368 100.877 60.203 108.938 62.35 113.232C62.04 116.961 64.68 117.543 64.68 117.543C64.68 117.543 64.788 118.438 66.196 120.223C70.274 113.193 72.916 111.057 79.907 107.677C79.579 107.021 78.03 104.412 78.082 103.91C78.257 102.22 76.8 101.287 76.8 101.287C76.8 101.287 76.514 101.131 75.635 98.549C74.847 96.236 73.599 93.372 70.74 90.974Z" fill="white"/>
<path fill-rule="evenodd" clip-rule="evenodd" d="M90.7319 288.027C90.7319 288.027 95.5869 290.335 99.0449 289.182C102.233 288.119 104.165 289.937 107.047 290.513C109.928 291.09 114.816 291.756 120.254 289.089C120.137 282.861 112.468 284.59 106.736 281.501C103.841 279.941 102.46 276.165 102.67 271.557H92.0439C92.0439 271.557 90.4709 283.447 90.7319 288.027Z" fill="#CBD1D1"/>
<path fill-rule="evenodd" clip-rule="evenodd" d="M90.707 287.833C90.707 287.833 93.452 289.27 98.346 288.571C101.802 288.077 101.569 289.231 105.764 289.853C109.959 290.474 118.856 289.659 120.098 288.727C120.564 289.969 119.71 291.057 119.71 291.057C119.71 291.057 118.001 291.739 114.272 291.989C111.977 292.143 106.174 292.265 104.132 291.368C102.112 289.814 99.238 289.853 98.072 291.134C93.645 292.209 90.888 290.824 90.888 290.824L90.707 287.833Z" fill="#2B0849"/>
<path fill-rule="evenodd" clip-rule="evenodd" d="M98.929 272.257H102.425C102.425 272.257 102.308 279.831 107.552 281.928C102.308 282.628 97.88 279.326 98.929 272.257Z" fill="#A4AABA"/>
<path fill-rule="evenodd" clip-rule="evenodd" d="M44.925 272.046C44.925 272.046 42.717 279.82 40.223 284.945C38.339 288.819 35.795 292.799 45.952 292.799C52.922 292.799 55.337 292.296 53.734 285.882C52.13 279.467 54.013 272.046 54.013 272.046H44.925Z" fill="#CBD1D1"/>
<path fill-rule="evenodd" clip-rule="evenodd" d="M38.5661 290.277C38.5661 290.277 40.7641 291.502 45.5201 291.502C51.8961 291.502 54.1661 289.772 54.1661 289.772C54.1661 289.772 54.7961 290.94 53.5171 292.042C52.4771 292.939 49.7471 293.71 45.7721 293.663C41.4251 293.613 39.6571 293.07 38.7101 292.439C37.8461 291.862 37.9901 290.782 38.5661 290.277Z" fill="#2B0849"/>
<path fill-rule="evenodd" clip-rule="evenodd" d="M45.8441 274.041C45.8441 274.041 45.8791 275.633 45.5151 277.111C45.1501 278.601 44.3851 280.366 44.3311 281.451C44.2701 282.657 49.0861 283.108 49.7341 281.487C50.3841 279.865 51.0911 274.75 51.7401 273.885C52.3881 273.02 46.6001 271.663 45.8441 274.041Z" fill="#A4AABA"/>
<path fill-rule="evenodd" clip-rule="evenodd" d="M89.9759 277.57L103.875 277.665C103.875 277.665 105.224 221.022 105.8 210.756C106.376 200.489 109.723 165.704 106.842 145.171L93.8049 144.502L70.0679 145.312C70.0679 145.312 69.6159 149.432 68.8249 155.677C68.7599 156.192 68.1169 156.551 68.0479 157.094C67.9699 157.702 68.4869 158.501 68.3799 159.138C65.9249 173.765 62.5829 191.874 60.1239 205.975C60.0029 206.668 58.8419 207.023 58.6089 208.771C58.5669 209.085 58.8289 210.355 58.7249 210.636C51.5849 230.109 46.5229 263.237 43.0649 277.826L58.2409 277.811C58.2409 277.811 60.5229 267.666 62.4259 258.94C65.3479 245.551 86.4379 170.62 86.4379 170.62L89.5709 169.666L89.4129 218.234C89.4129 218.234 89.1799 219.516 89.7629 220.332C90.3459 221.147 89.1819 221.499 89.3549 222.663L89.7629 224.527C89.7629 224.527 89.2969 231.985 88.8309 236.879C88.3639 241.774 89.9759 277.569 89.9759 277.569" fill="#7BB2F9"/>
<path d="M96.5238 222.534C96.5238 222.534 99.4048 221.382 102.864 218.5M65.0698 218.881C66.2668 218.98 69.2648 216.784 72.2948 213.754L65.0698 218.881Z" stroke="#648BD8" stroke-width="1.085" stroke-linecap="round" stroke-linejoin="round"/>
<path d="M97.4731 219.373C97.4731 219.373 100.355 218.22 103.813 215.339" stroke="#648BD8" stroke-width="1.032" stroke-linecap="round" stroke-linejoin="round"/>
<path d="M44.7422 273.727H58.5702M63.6722 222.144C63.6722 222.144 66.3962 221.53 70.4312 218.648L63.6722 222.144ZM75.4032 146.166C75.1222 149.392 75.7132 155.022 70.8972 155.644L75.4032 146.166ZM93.6822 144.344C93.6822 144.344 93.7972 158.901 92.3382 159.994C90.0332 161.724 89.2312 162.014 89.2312 162.014L93.6822 144.344ZM89.6972 144.923C89.6972 144.923 89.9662 158.067 88.6872 170.011L89.6972 144.923ZM84.0252 170.71C84.0252 170.71 90.8352 169.659 93.1412 169.659L84.0252 170.71ZM46.5262 270.045L45.6342 274.583L46.5262 270.045ZM47.4372 263.289L46.6222 267.446L47.4372 263.289ZM63.2252 202.503C62.8952 204.121 63.1232 204.407 62.7762 205.941C62.7762 205.941 60.0202 207.844 60.4862 209.864C60.9522 211.884 60.1762 213.288 55.9812 227.116C54.2192 232.923 51.7482 246.038 49.8162 255.394C49.7862 255.538 49.2952 258.04 48.6762 261.194L63.2252 202.503ZM64.6582 194.136C64.3632 195.794 64.0582 197.446 63.7412 199.074L64.6582 194.136ZM71.8302 146.787L70.5862 157.664C70.5862 157.664 69.4462 157.819 70.0672 159.994C70.1842 161.393 67.2892 176.384 64.6852 191.609L71.8302 146.787Z" stroke="#648BD8" stroke-width="1.085" stroke-linecap="round" stroke-linejoin="round"/>
<path fill-rule="evenodd" clip-rule="evenodd" d="M106.68 142.117C103.652 141.628 87.855 139.373 70.461 142.317C70.3111 142.343 70.1757 142.422 70.0804 142.541C69.985 142.659 69.9362 142.809 69.943 142.961C70.006 144.268 69.987 145.304 69.958 145.956C69.954 146.047 69.9704 146.139 70.0062 146.223C70.0419 146.308 70.0961 146.383 70.1647 146.444C70.2333 146.505 70.3146 146.55 70.4027 146.575C70.4908 146.601 70.5835 146.607 70.674 146.592C73.977 146.058 87.711 144.18 106.338 146.326C106.685 146.366 106.998 146.112 107.03 145.766C107.154 144.419 107.19 143.341 107.2 142.737C107.203 142.588 107.152 142.443 107.056 142.329C106.961 142.215 106.827 142.14 106.68 142.117Z" fill="#192064"/>
<path fill-rule="evenodd" clip-rule="evenodd" d="M96.8979 145.264L96.9009 140.162C96.9021 139.943 96.8185 139.733 96.6676 139.575C96.5166 139.417 96.3103 139.323 96.0919 139.315C93.3793 139.213 90.6639 139.208 87.9509 139.301C87.7313 139.308 87.5231 139.401 87.3702 139.559C87.2173 139.717 87.1316 139.928 87.1309 140.148L87.1279 145.245C87.1279 145.721 87.5159 146.102 87.9919 146.09C90.4699 146.026 93.1579 146.023 96.0219 146.107C96.1352 146.11 96.2481 146.091 96.3539 146.051C96.4597 146.01 96.5563 145.949 96.6379 145.87C96.7196 145.792 96.7847 145.697 96.8294 145.593C96.874 145.489 96.8973 145.377 96.8979 145.264Z" fill="white"/>
<path fill-rule="evenodd" clip-rule="evenodd" d="M95.7391 144.296L95.7411 141.101C95.7426 140.927 95.6762 140.76 95.5561 140.634C95.436 140.509 95.2717 140.435 95.0981 140.429C93.1981 140.368 91.1571 140.356 89.0041 140.419C88.8293 140.424 88.6634 140.497 88.5414 140.623C88.4194 140.748 88.3508 140.916 88.3501 141.091L88.3481 144.283C88.3481 144.659 88.6531 144.96 89.0281 144.952C90.8871 144.91 92.9021 144.909 95.0481 144.964C95.4241 144.974 95.7381 144.673 95.7391 144.296Z" fill="#192064"/>
<path d="M90.9401 170.404L91.8721 216.784C91.8721 216.784 92.5721 218.415 91.6391 219.58C90.7071 220.746 94.2031 220.28 92.5711 221.91C90.9411 223.543 93.5041 223.076 92.5711 225.407C91.9531 226.953 91.5401 247.328 91.4331 261.92M90.6021 273.522H103.421H90.6021ZM91.7161 269.761C91.7221 273.28 91.6441 275.311 91.7161 276.053V269.761ZM91.423 263.474C91.414 265.073 91.4071 266.032 91.4071 267.979L91.423 263.474Z" stroke="#648BD8" stroke-width="1.085" stroke-linecap="round" stroke-linejoin="round"/>
<path d="M78.0979 90.042C78.0979 90.042 85.7889 96.179 94.6449 92.762M74.2359 98.665L76.4499 102.977C76.4499 102.977 78.5479 103.793 78.3149 105.657L79.1309 107.871L74.2359 98.665ZM64.7969 116.611C65.0299 115.679 66.9729 109.464 77.3819 106.123L64.7969 116.611Z" stroke="#E4EBF7" stroke-width="1.085" stroke-linecap="round" stroke-linejoin="round"/>
<path fill-rule="evenodd" clip-rule="evenodd" d="M92.4738 86.9541C92.4738 86.9541 97.9498 86.1381 100.048 82.4091C101.345 82.0641 100.768 84.6211 99.7178 86.0801C99.0178 87.0511 98.7078 87.6341 98.7078 87.6341C98.7078 87.6341 98.9018 87.9441 98.8628 88.4501C98.8098 89.1471 98.6878 89.1031 98.5908 89.4981C98.5098 89.8331 98.6988 90.1551 98.5908 90.5471C98.5448 90.7171 98.3928 91.0471 98.2088 91.4251C98.0888 91.6741 98.1368 92.1121 98.0088 92.3731C97.7778 92.8421 96.4468 94.2431 95.3868 95.2281C91.5608 98.7821 90.3688 96.8721 89.3858 94.8201C88.4918 92.9551 88.7248 89.6931 88.5118 87.9451C88.1618 85.0311 85.8898 84.9151 86.5888 83.5161C86.9318 82.8311 89.4588 84.2061 89.8518 85.2641C90.6088 87.3041 92.8038 87.0711 92.4738 86.9541Z" fill="#FFC6A0"/>
<path d="M100.3 82.4287C99.8349 82.5057 99.9499 82.7007 99.3299 83.6717C98.7079 84.6427 94.5129 86.6037 92.9399 86.8957C90.3509 87.3757 90.6619 85.3357 88.6859 84.0407C86.9959 82.9337 85.1239 83.4027 87.2879 85.4387C88.2779 86.3707 88.2199 86.5457 88.6859 88.6437C89.0209 90.1497 88.0459 92.3137 89.3859 94.2367" stroke="#DB836E" stroke-width="0.774" stroke-linecap="round" stroke-linejoin="round"/>
<path d="M80.0428 108.673C77.9428 111.599 75.7768 114.848 74.4858 117.435" stroke="#E59788" stroke-width="0.774" stroke-linecap="round" stroke-linejoin="round"/>
<path fill-rule="evenodd" clip-rule="evenodd" d="M88.2202 124.768C88.2202 124.768 86.1222 122.826 83.0932 122.049C80.0632 121.272 79.5192 121.894 77.5772 122.127C75.6352 122.36 73.6922 121.195 73.9252 122.827C74.1582 124.457 78.9752 123.837 79.1312 124.924C79.2862 126.011 72.7612 127.72 70.8182 127.099C70.0412 127.876 71.2842 128.963 72.8382 129.274C73.0712 130.828 75.0912 130.828 75.0912 130.828C75.0912 130.828 75.7902 131.838 77.7322 131.916C80.2182 133.236 86.6662 131.216 88.6862 130.362C90.7062 129.507 88.2202 124.768 88.2202 124.768Z" fill="#FFC6A0"/>
<path d="M79.3638 108.104C79.3638 108.104 70.9738 110.862 66.1958 120.224M73.9248 122.826C73.9248 122.826 74.5848 123.953 77.0918 124.244C79.4068 124.514 79.6548 124.827 79.6548 124.827C79.6548 124.827 77.1098 127.721 70.5848 127.099L73.9248 122.826ZM72.9158 129.274C72.9158 129.274 76.7418 129.371 77.8488 128.556L72.9158 129.274ZM75.4798 130.75C75.4798 130.75 77.4408 130.886 78.8398 130.245L75.4798 130.75ZM77.7318 131.916C77.7318 131.916 79.4798 131.935 80.6458 131.411L77.7318 131.916ZM73.8278 122.321C73.8278 122.321 73.2328 121.289 75.0898 121.894C76.7608 122.438 77.9228 121.949 80.2178 122.049C81.6068 122.11 83.2848 121.752 84.1998 122.199C85.8058 122.983 87.8318 124.38 87.8318 124.38C87.8318 124.38 98.3578 125.584 106.865 123.253L73.8278 122.321Z" stroke="#E59788" stroke-width="0.774" stroke-linecap="round" stroke-linejoin="round"/>
<path d="M109.778 112.533C109.778 112.533 113.158 108.92 117.353 107.871" stroke="#E4EBF7" stroke-width="1.085" stroke-linecap="round" stroke-linejoin="round"/>
<path d="M107.875 123.006C107.875 123.006 117.572 120.261 119.32 122.126" stroke="#E59788" stroke-width="0.774" stroke-linecap="round" stroke-linejoin="round"/>
<path d="M133.475 170.039L129.52 166.084M195.105 83.656L199.076 79.77L195.105 83.656ZM187.666 90.933L191.402 87.278L187.666 90.933ZM192.252 84.207L187.79 79.647L192.252 84.207ZM198.953 91.057L194.82 86.832L198.953 91.057ZM129.756 163.074L133.474 159.356L129.756 163.074ZM122.791 170.039L126.289 166.541L122.791 170.039ZM127.061 163.626L122.791 159.356L127.061 163.626Z" stroke="#BFCDDD" stroke-width="2" stroke-linecap="round" stroke-linejoin="round"/>
<path fill-rule="evenodd" clip-rule="evenodd" d="M190.656 211.779H189.052C187.989 211.776 186.971 211.352 186.219 210.601C185.468 209.849 185.044 208.831 185.041 207.768V175.68C185.044 174.617 185.468 173.599 186.219 172.848C186.971 172.097 187.989 171.673 189.051 171.67H190.656C191.719 171.673 192.737 172.097 193.488 172.848C194.24 173.599 194.664 174.617 194.667 175.68V207.768C194.664 208.83 194.24 209.848 193.489 210.6C192.737 211.351 191.719 211.774 190.657 211.778" fill="#A3B4C6"/>
<path fill-rule="evenodd" clip-rule="evenodd" d="M238.324 212.977C238.324 214.254 237.817 215.478 236.914 216.38C236.012 217.283 234.788 217.79 233.511 217.79H146.875C145.599 217.79 144.374 217.283 143.472 216.38C142.569 215.478 142.062 214.254 142.062 212.977C142.062 211.701 142.569 210.476 143.472 209.574C144.374 208.671 145.599 208.164 146.875 208.164H233.511C234.788 208.164 236.012 208.671 236.914 209.574C237.817 210.476 238.324 211.701 238.324 212.977Z" fill="#A3B4C6"/>
<path fill-rule="evenodd" clip-rule="evenodd" d="M154.598 190.096H225.111V105.479H154.598V190.096Z" fill="#A3B4C6"/>
<path fill-rule="evenodd" clip-rule="evenodd" d="M225.428 190.096H154.28C153.43 190.093 152.615 189.754 152.014 189.153C151.413 188.551 151.074 187.737 151.072 186.887V167.92C151.074 167.07 151.413 166.255 152.014 165.653C152.615 165.052 153.43 164.713 154.28 164.71H225.428C226.278 164.712 227.093 165.051 227.694 165.653C228.296 166.254 228.634 167.069 228.637 167.92V186.887C228.634 187.737 228.295 188.552 227.694 189.153C227.092 189.755 226.277 190.093 225.427 190.096H225.428ZM225.428 130.832H154.28C153.43 130.829 152.615 130.49 152.014 129.889C151.413 129.288 151.074 128.474 151.072 127.624V108.656C151.074 107.806 151.413 106.991 152.014 106.39C152.615 105.789 153.43 105.45 154.28 105.447H225.428C226.278 105.449 227.093 105.788 227.694 106.39C228.296 106.991 228.634 107.806 228.637 108.657V127.624C228.634 128.474 228.295 129.289 227.694 129.89C227.092 130.491 226.277 130.83 225.427 130.832" fill="#BFCDDD"/>
<path fill-rule="evenodd" clip-rule="evenodd" d="M160.063 120.546C159.743 120.552 159.425 120.495 159.127 120.377C158.829 120.259 158.558 120.083 158.329 119.859C158.101 119.635 157.919 119.367 157.795 119.072C157.671 118.777 157.607 118.46 157.607 118.139C157.607 117.819 157.671 117.502 157.795 117.207C157.919 116.912 158.101 116.644 158.329 116.42C158.558 116.196 158.829 116.02 159.127 115.902C159.425 115.784 159.743 115.726 160.063 115.733C160.693 115.746 161.292 116.005 161.733 116.455C162.174 116.905 162.421 117.51 162.421 118.139C162.421 118.769 162.174 119.374 161.733 119.824C161.292 120.274 160.693 120.533 160.063 120.546ZM167.48 120.546C167.16 120.552 166.842 120.495 166.544 120.377C166.246 120.259 165.975 120.083 165.746 119.859C165.518 119.635 165.336 119.367 165.212 119.072C165.088 118.777 165.024 118.46 165.024 118.139C165.024 117.819 165.088 117.502 165.212 117.207C165.336 116.912 165.518 116.644 165.746 116.42C165.975 116.196 166.246 116.02 166.544 115.902C166.842 115.784 167.16 115.726 167.48 115.733C168.11 115.746 168.709 116.005 169.15 116.455C169.591 116.905 169.838 117.51 169.838 118.139C169.838 118.769 169.591 119.374 169.15 119.824C168.709 120.274 168.11 120.533 167.48 120.546ZM174.897 120.546C174.577 120.552 174.259 120.495 173.961 120.377C173.663 120.259 173.392 120.083 173.163 119.859C172.935 119.635 172.753 119.367 172.629 119.072C172.505 118.777 172.441 118.46 172.441 118.139C172.441 117.819 172.505 117.502 172.629 117.207C172.753 116.912 172.935 116.644 173.163 116.42C173.392 116.196 173.663 116.02 173.961 115.902C174.259 115.784 174.577 115.726 174.897 115.733C175.527 115.746 176.126 116.005 176.567 116.455C177.008 116.905 177.255 117.51 177.255 118.139C177.255 118.769 177.008 119.374 176.567 119.824C176.126 120.274 175.527 120.533 174.897 120.546ZM223.039 120.546H200.578C200.365 120.546 200.161 120.461 200.011 120.311C199.86 120.161 199.776 119.957 199.776 119.744V116.536C199.776 116.093 200.135 115.733 200.578 115.733H223.038C223.482 115.733 223.841 116.093 223.841 116.536V119.744C223.841 120.187 223.481 120.546 223.039 120.546Z" fill="white"/>
<path fill-rule="evenodd" clip-rule="evenodd" d="M225.428 160.464H154.28C153.43 160.461 152.615 160.123 152.014 159.521C151.413 158.92 151.074 158.105 151.072 157.255V138.288C151.074 137.438 151.413 136.623 152.014 136.022C152.615 135.421 153.43 135.082 154.28 135.079H225.428C226.278 135.082 227.093 135.421 227.694 136.022C228.295 136.623 228.634 137.438 228.637 138.288V157.255C228.634 158.106 228.295 158.921 227.694 159.522C227.092 160.123 226.277 160.462 225.427 160.464" fill="#BFCDDD"/>
<path d="M156.07 160.613H162.821M173.955 130.832H223.256H173.955ZM165.484 130.832H171.573H165.484ZM156.452 130.832H163.202H156.452ZM174.337 160.613H223.637H174.337ZM165.865 160.613H171.954H165.865Z" stroke="#7C90A5" stroke-width="1.124" stroke-linecap="round" stroke-linejoin="round"/>
<path fill-rule="evenodd" clip-rule="evenodd" d="M160.063 151.038C159.425 151.038 158.812 150.784 158.361 150.333C157.91 149.881 157.656 149.269 157.656 148.631C157.656 147.992 157.91 147.38 158.361 146.929C158.812 146.477 159.425 146.224 160.063 146.224C160.701 146.224 161.314 146.477 161.765 146.929C162.216 147.38 162.47 147.992 162.47 148.631C162.47 149.269 162.216 149.881 161.765 150.333C161.314 150.784 160.701 151.038 160.063 151.038ZM167.48 151.038C166.842 151.038 166.229 150.784 165.778 150.333C165.327 149.881 165.073 149.269 165.073 148.631C165.073 147.992 165.327 147.38 165.778 146.929C166.229 146.477 166.842 146.224 167.48 146.224C168.118 146.224 168.731 146.477 169.182 146.929C169.633 147.38 169.887 147.992 169.887 148.631C169.887 149.269 169.633 149.881 169.182 150.333C168.731 150.784 168.118 151.038 167.48 151.038ZM174.897 151.038C174.581 151.038 174.268 150.975 173.976 150.854C173.684 150.733 173.419 150.556 173.195 150.332C172.972 150.109 172.794 149.843 172.674 149.551C172.553 149.259 172.49 148.946 172.49 148.63C172.491 148.314 172.553 148.001 172.674 147.709C172.795 147.417 172.972 147.152 173.196 146.928C173.419 146.705 173.685 146.528 173.977 146.407C174.269 146.286 174.582 146.224 174.898 146.224C175.536 146.224 176.149 146.477 176.6 146.929C177.051 147.38 177.305 147.992 177.305 148.631C177.305 149.269 177.051 149.881 176.6 150.333C176.149 150.784 175.536 151.038 174.898 151.038H174.897ZM223.039 151.038H200.578C200.365 151.038 200.161 150.953 200.011 150.803C199.86 150.652 199.776 150.448 199.776 150.236V147.027C199.776 146.584 200.135 146.225 200.578 146.225H223.038C223.482 146.225 223.841 146.585 223.841 147.027V150.236C223.841 150.679 223.481 151.038 223.039 151.038ZM160.063 179.987C159.743 179.993 159.425 179.936 159.127 179.818C158.829 179.7 158.558 179.524 158.329 179.299C158.101 179.075 157.919 178.808 157.795 178.513C157.671 178.217 157.607 177.9 157.607 177.58C157.607 177.26 157.671 176.943 157.795 176.648C157.919 176.352 158.101 176.085 158.329 175.861C158.558 175.637 158.829 175.461 159.127 175.343C159.425 175.225 159.743 175.167 160.063 175.174C160.693 175.186 161.292 175.446 161.733 175.896C162.174 176.345 162.421 176.95 162.421 177.58C162.421 178.21 162.174 178.815 161.733 179.265C161.292 179.715 160.693 179.974 160.063 179.987ZM167.48 179.987C167.16 179.993 166.842 179.936 166.544 179.818C166.246 179.7 165.975 179.524 165.746 179.299C165.518 179.075 165.336 178.808 165.212 178.513C165.088 178.217 165.024 177.9 165.024 177.58C165.024 177.26 165.088 176.943 165.212 176.648C165.336 176.352 165.518 176.085 165.746 175.861C165.975 175.637 166.246 175.461 166.544 175.343C166.842 175.225 167.16 175.167 167.48 175.174C168.11 175.186 168.709 175.446 169.15 175.896C169.591 176.345 169.838 176.95 169.838 177.58C169.838 178.21 169.591 178.815 169.15 179.265C168.709 179.715 168.11 179.974 167.48 179.987ZM174.897 179.987C174.577 179.993 174.259 179.936 173.961 179.818C173.663 179.7 173.392 179.524 173.163 179.299C172.935 179.075 172.753 178.808 172.629 178.513C172.505 178.217 172.441 177.9 172.441 177.58C172.441 177.26 172.505 176.943 172.629 176.648C172.753 176.352 172.935 176.085 173.163 175.861C173.392 175.637 173.663 175.461 173.961 175.343C174.259 175.225 174.577 175.167 174.897 175.174C175.527 175.186 176.126 175.446 176.567 175.896C177.008 176.345 177.255 176.95 177.255 177.58C177.255 178.21 177.008 178.815 176.567 179.265C176.126 179.715 175.527 179.974 174.897 179.987ZM223.039 179.987H200.578C200.365 179.987 200.161 179.902 200.011 179.752C199.86 179.601 199.776 179.397 199.776 179.185V175.976C199.776 175.533 200.135 175.174 200.578 175.174H223.038C223.482 175.174 223.841 175.534 223.841 175.976V179.185C223.841 179.628 223.481 179.987 223.039 179.987Z" fill="white"/>
<path fill-rule="evenodd" clip-rule="evenodd" d="M203.54 221.108H176.168C175.53 221.106 174.919 220.852 174.469 220.401C174.018 219.95 173.764 219.338 173.762 218.701V207.253C173.764 206.615 174.018 206.004 174.469 205.553C174.92 205.102 175.531 204.848 176.168 204.846H203.54C204.178 204.848 204.789 205.102 205.24 205.553C205.691 206.004 205.945 206.615 205.947 207.253V218.7C205.946 219.338 205.692 219.949 205.24 220.4C204.789 220.851 204.178 221.105 203.54 221.107" fill="#BFCDDD"/>
<path d="M201.55 207.217V218.737M177.759 207.217V218.737V207.217Z" stroke="#A3B4C6" stroke-width="1.124" stroke-linecap="round" stroke-linejoin="round"/>
<path fill-rule="evenodd" clip-rule="evenodd" d="M163.373 267.894C160.874 267.894 158.478 266.901 156.711 265.134C154.944 263.368 153.951 260.971 153.951 258.472V243.652C153.977 241.17 154.981 238.798 156.745 237.052C158.509 235.306 160.891 234.326 163.374 234.326C165.856 234.326 168.238 235.306 170.002 237.052C171.767 238.798 172.771 241.17 172.796 243.652V258.472C172.796 260.971 171.803 263.368 170.036 265.135C168.269 266.901 165.872 267.894 163.373 267.894Z" fill="#5BA02E"/>
<path fill-rule="evenodd" clip-rule="evenodd" d="M171.72 267.83C170.482 267.83 169.257 267.586 168.114 267.113C166.971 266.639 165.932 265.945 165.057 265.07C164.182 264.195 163.488 263.156 163.015 262.013C162.541 260.87 162.298 259.644 162.298 258.407V254.969C162.323 252.487 163.327 250.115 165.092 248.369C166.856 246.623 169.238 245.643 171.72 245.643C174.203 245.643 176.585 246.623 178.349 248.369C180.113 250.115 181.117 252.487 181.143 254.969V258.407C181.143 260.906 180.15 263.303 178.383 265.07C176.616 266.837 174.22 267.83 171.721 267.83" fill="#92C110"/>
<path fill-rule="evenodd" clip-rule="evenodd" d="M181.81 293.666H154.098C153.677 293.666 153.259 293.583 152.87 293.422C152.48 293.26 152.127 293.024 151.829 292.726C151.531 292.428 151.294 292.074 151.133 291.684C150.972 291.295 150.889 290.878 150.889 290.456V269.79C150.889 269.369 150.972 268.951 151.133 268.562C151.294 268.172 151.531 267.818 151.829 267.52C152.127 267.222 152.48 266.986 152.87 266.824C153.259 266.663 153.677 266.58 154.098 266.58H181.809C182.231 266.58 182.648 266.663 183.037 266.824C183.427 266.986 183.781 267.222 184.079 267.52C184.377 267.818 184.613 268.172 184.774 268.562C184.935 268.951 185.018 269.369 185.018 269.79V290.458C185.018 291.309 184.68 292.125 184.078 292.727C183.476 293.329 182.66 293.667 181.809 293.667" fill="#F2D7AD"/>
</svg>
