<svg width="334" height="402" viewBox="0 0 334 402" fill="none" xmlns="http://www.w3.org/2000/svg">
<g clip-path="url(#clip0)">
<path opacity="0.18" d="M49.9715 155.466C42.5538 161.897 34.1598 167.149 26.8879 173.749C16.9321 182.79 9.345 194.143 4.79353 206.81C0.24206 219.478 -1.13446 233.071 0.784954 246.396C2.70437 259.721 7.86095 272.37 15.8015 283.231C23.742 294.091 34.2234 302.831 46.3244 308.682C61.9342 316.239 79.4966 318.645 95.8133 324.537C117.55 332.408 137.2 346.452 160.003 350.231C187.205 354.728 215.137 343.563 236.649 326.28C258.162 308.997 274.299 286.07 289.931 263.311C303.252 243.937 316.527 224.237 325.079 202.321C333.63 180.406 337.187 155.792 330.555 133.224C324.259 111.86 309.233 93.8011 291.704 80.0717C274.176 66.3422 253.976 56.4583 233.967 46.6082C219.132 39.3218 203.791 31.9005 187.239 31.2033C158.466 30.0114 120.367 52.2979 99.9879 71.897C89.63 81.8595 87.1387 98.4676 81.2248 111.252C73.6163 127.759 63.8082 143.445 49.9715 155.466Z" fill="#51A4FB"/>
<path d="M83.9629 268.832L48.3331 360.834L185.657 294.751L217.774 205.897L83.9629 268.832Z" fill="#51A4FB"/>
<path d="M83.9629 268.877C83.2672 266.786 60.2621 208.809 60.2621 208.809L194.096 152.238L210.827 209.506L83.9629 268.877Z" fill="#51A4FB"/>
<path d="M83.9629 268.877C83.2672 266.786 60.2621 208.809 60.2621 208.809L194.096 152.238L210.827 209.506L83.9629 268.877Z" fill="url(#paint0_linear)"/>
<path d="M100.897 155.331L60.2621 208.764L194.107 152.194L230.219 98.7599L100.897 155.331Z" fill="#51A4FB"/>
<path d="M96.352 76.777L92.5253 41.4583L228.929 0L229.591 52.6465L230.219 98.7599L100.897 155.331L96.352 76.777Z" fill="#51A4FB"/>
<path d="M96.352 76.777L92.5253 41.4583L228.929 0L229.591 52.6465L230.219 98.7599L100.897 155.331L96.352 76.777Z" fill="url(#paint1_linear)"/>
<path d="M102.412 48.3961L109.684 149.686C109.684 149.686 72.4941 201.084 71.7534 203.322C71.0128 205.56 92.5702 260.669 92.5702 260.669C92.5702 260.669 62.8207 345.62 63.5726 343.383C64.3245 341.145 184.77 285.26 184.77 285.26L194.466 213.779L175.13 163.854L221.982 99.0185L221.208 11.6942L102.412 48.3961Z" fill="url(#paint2_linear)"/>
<path opacity="0.44" d="M125.237 164.517C115.138 150.023 101.211 134.157 106.037 117.145C125.635 132.715 147.742 144.819 171.405 152.936C180.528 141.556 160.474 124.42 167.073 111.421C168.237 109.138 170.135 107.315 172.46 106.245C174.785 105.176 177.402 104.923 179.889 105.527C182.375 106.132 184.586 107.558 186.164 109.576C187.742 111.594 188.595 114.086 188.586 116.65C193.382 116.394 198.062 115.071 202.286 112.778C206.509 110.485 210.171 107.279 213.005 103.393C213.599 123.059 198.349 139.026 185.387 153.813C183.693 155.747 181.942 157.872 181.695 160.424C181.493 162.538 182.357 164.596 183.154 166.575C199.202 206.257 193.052 251.01 186.644 293.345C186.644 298.517 155.458 308.514 150.274 299.833C144.562 290.253 151.777 265.875 151.643 254.855C151.272 223.022 143.653 190.829 125.237 164.517Z" fill="url(#paint3_linear)"/>
<path d="M112.579 92.4855C109.491 93.4144 106.627 94.9682 104.163 97.0508C102.94 98.1048 101.988 99.4368 101.384 100.935C100.781 102.434 100.545 104.055 100.695 105.664C101.216 107.875 102.216 109.944 103.624 111.725C118.089 132.999 133.373 155.05 155.851 167.52C163.819 171.927 172.482 175.008 180.304 179.664C188.125 184.319 195.352 190.964 197.922 199.713C201.289 211.024 196.385 224.147 201.94 234.57C202.661 236.078 203.768 237.366 205.149 238.303C206.866 239.185 208.764 239.654 210.693 239.675C224.036 240.8 238.03 241.654 250.273 236.212C252.093 235.536 253.712 234.406 254.975 232.929C256.006 231.346 256.683 229.558 256.961 227.689C262.256 203.253 263.293 178.085 260.025 153.295C255.929 122.407 253.292 87.6279 237.435 60.8324C232.565 69.1758 235.022 79.6444 236.694 89.1684C237.94 96.3199 238.658 103.55 239.376 110.78C239.982 116.818 240.498 123.307 237.536 128.603C235.471 132.28 231.925 134.922 228.278 136.98C218.593 142.4 207.405 144.435 196.396 145.818C185.612 147.178 174.143 147.887 164.335 143.175C157.523 139.892 152.159 134.292 146.952 128.805C135.337 116.594 124.115 104.708 112.579 92.4855Z" fill="white"/>
<path d="M203.14 108.43C202.57 109.945 202.131 111.506 201.827 113.097C201.421 115.926 201.856 118.813 203.077 121.397C204.299 123.981 206.253 126.147 208.695 127.624C209.87 128.195 210.996 128.861 212.062 129.615C212.911 130.398 213.595 131.344 214.073 132.396C214.551 133.449 214.814 134.587 214.845 135.743C214.896 138.052 214.643 140.359 214.093 142.602C213.981 143.164 213.958 143.918 214.486 144.154C214.648 144.21 214.82 144.233 214.991 144.221C219.885 144.2 224.676 142.814 228.827 140.218C230.146 139.47 231.275 138.427 232.127 137.171C233.44 134.922 233.249 132.223 233.126 129.66C232.924 122.913 234.079 116.166 233.653 109.42C233.227 102.673 230.814 95.5665 225.225 91.7884C222.813 90.2113 220.032 89.2927 217.157 89.1234C215.215 88.9773 211.198 88.7636 209.615 90.1467C208.751 90.9113 208.493 92.9016 208.123 93.9473C207.539 95.634 206.96 97.3206 206.384 99.0073L203.14 108.43Z" fill="url(#paint4_linear)"/>
<path d="M220.142 75.349C226.078 75.8887 232.284 75.5739 237.727 78.0252C245.75 81.6459 250.25 90.7089 250.767 99.5021C251.272 105.992 249.546 112.46 245.874 117.83C244.017 120.479 241.569 122.656 238.725 124.191C235.88 125.725 232.718 126.573 229.49 126.669C226.28 126.669 222.588 125.308 221.713 122.171C221.347 120.222 221.75 118.207 222.835 116.549C223.632 115.098 224.664 113.546 224.339 111.927C224.118 111.169 223.682 110.492 223.085 109.977C222.487 109.462 221.753 109.131 220.972 109.026C219.421 108.826 217.846 108.937 216.337 109.352C217.168 105.495 217.931 101.211 215.945 97.8041C213.128 92.9915 206.058 92.0695 203.197 87.2793C202.074 85.3116 202.175 82.1294 204.319 81.4435C204.735 81.3707 205.134 81.2221 205.497 81.0049C206.148 80.4202 205.755 79.3745 205.396 78.5762C204.633 76.8782 203.702 73.7186 204.442 71.8295C205.564 69.0071 205.901 70.289 208.044 71.4922C211.745 73.6518 215.876 74.9686 220.142 75.349Z" fill="#3E3E54"/>
<path d="M104.69 81.6122C104.441 80.8061 104.062 80.0465 103.568 79.3633C103.305 79.0325 102.957 78.7794 102.562 78.6309C102.167 78.4824 101.739 78.444 101.323 78.5199C101.124 78.5779 100.939 78.6795 100.784 78.8176C100.628 78.9556 100.505 79.1266 100.423 79.3181C100.342 79.5097 100.304 79.717 100.312 79.9251C100.32 80.1332 100.374 80.3369 100.47 80.5214C99.8358 79.8245 99.2649 79.0719 98.7647 78.2726C98.5154 77.8628 98.173 77.5178 97.7654 77.2658C97.3579 77.0137 96.8966 76.8617 96.4193 76.822C95.8799 76.8789 95.3723 77.1053 94.9692 77.4689C94.566 77.8325 94.288 78.3145 94.1749 78.846C93.9451 79.9094 93.9451 81.0098 94.1749 82.0732C94.6971 84.6393 94.8857 87.2622 94.736 89.8768C94.5116 92.1257 93.7822 94.4758 94.3433 96.691C95.0166 99.4458 98.2822 101.526 100.818 100.267C101.777 99.6686 102.624 98.9076 103.321 98.0178C105.565 95.679 108.202 94.4421 111.042 93.0365C110.458 91.2486 108.663 89.4158 107.675 87.7179C106.535 85.7573 105.537 83.7167 104.69 81.6122Z" fill="url(#paint5_linear)"/>
<path d="M234.674 55.2327C233.919 52.721 232.301 50.558 230.107 49.127L229.602 52.6465C229.582 52.9713 229.477 53.2853 229.299 53.5573C229.146 53.7491 228.944 53.8966 228.715 53.9846C227.595 54.357 226.415 54.5172 225.237 54.4568C224.649 54.4357 224.065 54.5529 223.531 54.7989C222.997 55.045 222.528 55.4131 222.162 55.8736C221.913 56.4009 221.809 56.9852 221.86 57.5662C221.911 58.1472 222.116 58.7041 222.453 59.1795C222.919 59.9606 223.551 60.6288 224.305 61.136C225.406 61.6872 226.46 62.3264 227.458 63.0476C229.041 64.5093 229.198 66.8932 229.624 68.9959C230.051 71.0986 231.319 73.4937 233.462 73.5836C234.685 72.4592 234.876 70.6488 235 68.9959C235.168 66.6458 236.122 64.3969 236.268 62.0918C236.414 59.7867 235.381 57.2679 234.674 55.2327Z" fill="url(#paint6_linear)"/>
<path d="M272.122 357.112C274.03 360.665 273.446 365.208 272.503 369.144C271.561 373.079 268.475 376.801 264.457 377.071C258.555 377.465 256.804 369.683 252.652 365.467C237.682 350.242 229.714 337.805 227.537 322.446C226.168 312.697 226.258 302.678 223.475 293.21C221.309 285.867 217.46 279.132 215.226 271.846C212.163 261.861 212.219 251.235 212.286 240.788C219.468 240.039 226.621 239.038 233.743 237.786C237.929 237.067 250.688 232.164 254.425 233.648C260.922 236.324 258.656 264.717 257.915 272.003C254.616 304.252 254.616 324.515 272.122 357.112Z" fill="#3E3E54"/>
<path d="M272.122 357.112C274.03 360.665 273.446 365.208 272.503 369.144C271.561 373.079 268.475 376.801 264.457 377.071C258.555 377.465 256.804 369.683 252.652 365.467C237.682 350.242 229.714 337.805 227.537 322.446C226.168 312.697 226.258 302.678 223.475 293.21C221.309 285.867 217.46 279.132 215.226 271.846C212.163 261.861 212.219 251.235 212.286 240.788C219.468 240.039 226.621 239.038 233.743 237.786C237.929 237.067 250.688 232.164 254.425 233.648C260.922 236.324 258.656 264.717 257.915 272.003C254.616 304.252 254.616 324.515 272.122 357.112Z" fill="url(#paint7_linear)"/>
<path d="M192.019 389.271C192.513 375.778 197.305 375.553 199.067 362.116C199.897 355.752 199.65 349.219 201.188 343C202.46 338.509 204.225 334.172 206.451 330.069C219.525 303.993 239.791 283.855 245.616 255.26C246.379 251.504 248.219 235.537 248.466 234.312C248.466 234.312 228.682 238.101 224.9 238L207.27 237.528C205.683 237.36 204.08 237.572 202.591 238.146C200.894 239.152 199.571 240.683 198.82 242.509C193.68 252.741 193.579 264.638 191.874 275.961C188.821 296.302 180.393 315.485 176.701 335.725C175.254 343.731 174.547 351.85 173.84 359.946C172.965 370.066 173.84 367.817 172.942 377.937C172.701 379.274 172.85 380.651 173.368 381.906C174.04 382.931 174.969 383.761 176.062 384.312C181.112 387.517 186.453 391.441 192.019 389.271Z" fill="#3E3E54"/>
<path d="M154.269 391.441C154.156 394.163 157.142 395.827 159.711 396.715C167.591 399.462 175.777 401.233 184.086 401.989C184.681 402.073 185.285 402.073 185.881 401.989C188.451 401.46 189.326 398.278 189.697 395.669L190.302 391.34C190.373 391.087 190.387 390.822 190.342 390.563C190.297 390.305 190.196 390.059 190.044 389.845C189.652 389.44 188.99 389.53 188.417 389.597C181.684 390.384 177.554 383.379 171.001 383.773C167.107 383.953 154.504 386.325 154.269 391.441Z" fill="#3E3E54"/>
<path d="M246.794 375.699C245.672 376.037 244.437 376.576 244.146 377.701C244.039 378.496 244.244 379.302 244.718 379.95C246.745 382.905 249.847 384.947 253.359 385.639C256.842 386.297 260.396 386.49 263.93 386.213L268.654 386.067C269.434 386.106 270.211 385.931 270.899 385.561C271.334 385.17 271.68 384.689 271.913 384.151C272.145 383.613 272.259 383.032 272.245 382.446C272.471 379.689 272.423 376.917 272.099 374.17C272.043 373.743 271.931 373.248 271.538 373.046C271.146 372.843 270.551 373.304 270.158 373.664C266.915 376.599 262.449 374.159 258.813 373.731C254.941 373.349 250.419 374.575 246.794 375.699Z" fill="#3E3E54"/>
<path d="M137.582 91.1025C137.582 91.1025 138.176 92.3956 139.074 94.6782" stroke="white" stroke-width="0.58" stroke-miterlimit="10"/>
<path d="M141.644 101.818C146.806 117.763 153.18 147.921 136.145 167.036C112.108 194.023 97.5303 191.122 103.366 215.207C107.383 231.815 113.465 250.515 116.832 260.522" stroke="white" stroke-width="0.58" stroke-miterlimit="10" stroke-dasharray="6.74 6.74"/>
<path d="M118.1 264.098C118.908 266.426 119.391 267.764 119.391 267.764C119.391 267.764 118.426 268.888 116.978 270.8" stroke="white" stroke-width="0.58" stroke-miterlimit="10"/>
<path d="M112.422 277.097C105.184 287.801 97.014 303.78 113.544 302.802C138.311 301.34 174.008 275.062 168.184 260.466C162.36 245.871 144.865 237.831 139.007 225.417C133.149 213.003 151.351 218.12 161.585 202.793C171.82 187.467 164.503 181.62 160.856 165.563C157.209 149.506 171.786 163.314 179.08 125.409C186.375 87.5042 173.974 79.4195 164.492 75.0454C157.568 71.8407 174.805 56.9193 184.568 49.127" stroke="white" stroke-width="0.58" stroke-miterlimit="10" stroke-dasharray="6.92 6.92"/>
<path d="M187.699 46.7207C189.595 45.2589 190.785 44.3818 190.785 44.3818" stroke="white" stroke-width="0.58" stroke-miterlimit="10"/>
<path d="M190.516 34.8915L192.973 52.4103" stroke="white" stroke-width="2.31" stroke-miterlimit="10"/>
<path d="M181.864 42.7401H198.629" stroke="white" stroke-width="2.31" stroke-miterlimit="10"/>
<path d="M164.93 219.581C166.739 219.581 168.206 218.111 168.206 216.298C168.206 214.485 166.739 213.015 164.93 213.015C163.12 213.015 161.653 214.485 161.653 216.298C161.653 218.111 163.12 219.581 164.93 219.581Z" fill="white"/>
<path d="M131.23 170.848C133.04 170.848 134.507 169.378 134.507 167.565C134.507 165.751 133.04 164.281 131.23 164.281C129.42 164.281 127.953 165.751 127.953 167.565C127.953 169.378 129.42 170.848 131.23 170.848Z" fill="white"/>
</g>
<defs>
<linearGradient id="paint0_linear" x1="130.254" y1="142.017" x2="145.621" y2="336.193" gradientUnits="userSpaceOnUse">
<stop stop-opacity="0"/>
<stop offset="0.99"/>
</linearGradient>
<linearGradient id="paint1_linear" x1="19076.4" y1="5233.09" x2="28585" y2="38058.6" gradientUnits="userSpaceOnUse">
<stop stop-opacity="0"/>
<stop offset="0.99"/>
</linearGradient>
<linearGradient id="paint2_linear" x1="409.76" y1="-153.498" x2="-83.903" y2="438.294" gradientUnits="userSpaceOnUse">
<stop offset="0.02" stop-color="white" stop-opacity="0"/>
<stop offset="0.58" stop-color="white" stop-opacity="0.39"/>
<stop offset="0.68" stop-color="white" stop-opacity="0.68"/>
<stop offset="1" stop-color="white"/>
</linearGradient>
<linearGradient id="paint3_linear" x1="-7014.55" y1="17612.7" x2="68871" y2="33361.9" gradientUnits="userSpaceOnUse">
<stop stop-opacity="0"/>
<stop offset="0.99"/>
</linearGradient>
<linearGradient id="paint4_linear" x1="201.659" y1="116.627" x2="233.743" y2="116.627" gradientUnits="userSpaceOnUse">
<stop stop-color="#E5C5D5"/>
<stop offset="0.42" stop-color="#EAD4D1"/>
<stop offset="1" stop-color="#F0E9CB"/>
</linearGradient>
<linearGradient id="paint5_linear" x1="2123.86" y1="2167.12" x2="2383.2" y2="2167.12" gradientUnits="userSpaceOnUse">
<stop stop-color="#E5C5D5"/>
<stop offset="0.42" stop-color="#EAD4D1"/>
<stop offset="1" stop-color="#F0E9CB"/>
</linearGradient>
<linearGradient id="paint6_linear" x1="3585.92" y1="1600.9" x2="3771.84" y2="1600.9" gradientUnits="userSpaceOnUse">
<stop stop-color="#E5C5D5"/>
<stop offset="0.42" stop-color="#EAD4D1"/>
<stop offset="1" stop-color="#F0E9CB"/>
</linearGradient>
<linearGradient id="paint7_linear" x1="18484.6" y1="41851.9" x2="15639.1" y2="41515.9" gradientUnits="userSpaceOnUse">
<stop stop-opacity="0"/>
<stop offset="0.99"/>
</linearGradient>
<clipPath id="clip0">
<rect width="334" height="402" fill="white"/>
</clipPath>
</defs>
</svg>
