<svg width="30" height="30" viewBox="0 0 30 30" fill="none" xmlns="http://www.w3.org/2000/svg">
<path d="M30 15C30 6.71573 23.2843 0 15 0C6.71573 0 0 6.71573 0 15C0 23.2843 6.71573 30 15 30C23.2843 30 30 23.2843 30 15Z" fill="#55ACEE"/>
<path d="M18.591 7.19699C16.4628 7.25092 14.7555 8.99287 14.7555 11.1345C14.7555 11.4428 14.7886 11.7442 14.856 12.033C11.5821 11.8685 8.67945 10.3003 6.73652 7.91699C6.39744 8.49851 6.20252 9.17588 6.20252 9.89849C6.20252 11.265 6.89901 12.4698 7.95602 13.176C7.31059 13.1553 6.70226 12.9775 6.17102 12.6825C6.17072 12.6989 6.17102 12.7167 6.17102 12.7335C6.17102 14.6417 7.5293 16.232 9.33152 16.5945C9.00101 16.6841 8.65288 16.7325 8.29352 16.7325C8.0394 16.7325 7.793 16.7084 7.55252 16.662C8.05414 18.2269 9.50703 19.3664 11.2305 19.398C9.88236 20.4546 8.1864 21.084 6.34052 21.084C6.02288 21.084 5.70832 21.0666 5.40002 21.03C7.14379 22.1482 9.21319 22.8 11.4375 22.8C18.6835 22.8 22.6455 16.7976 22.6455 11.592C22.6455 11.4213 22.6424 11.2496 22.635 11.0805C23.4044 10.5263 24.0723 9.83203 24.6 9.04199C23.8942 9.35574 23.1351 9.56828 22.338 9.66299C23.1518 9.1758 23.7763 8.40409 24.0705 7.48349C23.3093 7.93521 22.4661 8.26354 21.5685 8.44049C20.8502 7.67501 19.826 7.19699 18.693 7.19699C18.659 7.19699 18.6248 7.19613 18.591 7.19699Z" fill="white"/>
</svg>
