<svg width="30" height="30" viewBox="0 0 30 30" fill="none" xmlns="http://www.w3.org/2000/svg">
<path d="M15 30C23.2843 30 30 23.2843 30 15C30 6.71573 23.2843 0 15 0C6.71573 0 0 6.71573 0 15C0 23.2843 6.71573 30 15 30Z" fill="#4E71A8"/>
<path d="M18.6875 12.1875H16.1875V10.5625C16.1875 9.93752 16.625 9.81252 16.875 9.81252C17.1875 9.81252 18.625 9.81252 18.625 9.81252V7.06252H16.1875C13.4375 7.06252 12.875 9.12502 12.875 10.375V12.1875H11.3125V15H12.875C12.875 18.625 12.875 22.9375 12.875 22.9375H16.1875C16.1875 22.9375 16.1875 18.5625 16.1875 15H18.4375L18.6875 12.1875Z" fill="white"/>
</svg>
