<svg width="24" height="24" viewBox="0 0 24 24" fill="none" xmlns="http://www.w3.org/2000/svg">
<path fill-rule="evenodd" clip-rule="evenodd" d="M5.17217 12C5.17217 11.2206 5.30154 10.4732 5.53273 9.7723L1.48835 6.68399C0.700104 8.2843 0.256104 10.0877 0.256104 12C0.256104 13.9108 0.699728 15.7129 1.48667 17.3122L5.52879 14.2179C5.29985 13.5202 5.17217 12.7757 5.17217 12Z" fill="#FBBC05"/>
<path fill-rule="evenodd" clip-rule="evenodd" d="M12.2732 4.90912C13.9665 4.90912 15.496 5.50912 16.6977 6.49088L20.1934 3C18.0632 1.14544 15.3321 0 12.2732 0C7.52422 0 3.44272 2.71575 1.4884 6.684L5.53259 9.77231C6.46447 6.94369 9.12078 4.90912 12.2732 4.90912Z" fill="#EA4335"/>
<path fill-rule="evenodd" clip-rule="evenodd" d="M12.2732 19.0909C9.12096 19.0909 6.46465 17.0563 5.53278 14.2277L1.4884 17.3154C3.44272 21.2843 7.52422 24 12.2732 24C15.2042 24 18.0026 22.9592 20.1028 21.0092L16.264 18.0414C15.1808 18.7238 13.8167 19.0909 12.2732 19.0909Z" fill="#34A853"/>
<path fill-rule="evenodd" clip-rule="evenodd" d="M23.7439 12C23.7439 11.2909 23.6346 10.5272 23.4707 9.81825H12.2732V14.4546H18.7187C18.3964 16.0354 17.5193 17.2506 16.2639 18.0414L20.1028 21.0092C22.3089 18.9617 23.7439 15.9114 23.7439 12Z" fill="#4285F4"/>
</svg>
